<mxfile host="app.diagrams.net" modified="2022-07-06T05:14:22.516Z" agent="5.0 (Windows NT 10.0; Win64; x64) AppleWebKit/537.36 (KHTML, like Gecko) Chrome/103.0.0.0 Safari/537.36" etag="mJGgM0faKYRCQP8yBt-d" version="20.0.4" type="github">
  <diagram id="REW180NoGFZ-mmMNd1vn" name="Page-1">
    <mxGraphModel dx="12566" dy="7860" grid="1" gridSize="10" guides="1" tooltips="1" connect="1" arrows="1" fold="1" page="1" pageScale="1" pageWidth="827" pageHeight="1169" math="0" shadow="0">
      <root>
        <mxCell id="0" />
        <mxCell id="1" parent="0" />
        <mxCell id="gjld3cbzGbYmKHsjepiV-26" value="首页" style="swimlane;startSize=23;" vertex="1" parent="1">
          <mxGeometry x="2000" y="100" width="1110" height="790" as="geometry" />
        </mxCell>
        <mxCell id="gjld3cbzGbYmKHsjepiV-27" value="搜索" style="rounded=1;whiteSpace=wrap;html=1;fillColor=#dae8fc;strokeColor=#6c8ebf;" vertex="1" parent="gjld3cbzGbYmKHsjepiV-26">
          <mxGeometry x="110" y="35" width="500" height="45" as="geometry" />
        </mxCell>
        <mxCell id="gjld3cbzGbYmKHsjepiV-28" value="LOGO" style="text;html=1;strokeColor=#6c8ebf;fillColor=#dae8fc;align=center;verticalAlign=middle;whiteSpace=wrap;rounded=0;" vertex="1" parent="gjld3cbzGbYmKHsjepiV-26">
          <mxGeometry x="20" y="42.5" width="60" height="30" as="geometry" />
        </mxCell>
        <mxCell id="gjld3cbzGbYmKHsjepiV-29" value="交易" style="text;html=1;strokeColor=#6c8ebf;fillColor=#dae8fc;align=center;verticalAlign=middle;whiteSpace=wrap;rounded=0;" vertex="1" parent="gjld3cbzGbYmKHsjepiV-26">
          <mxGeometry x="620" y="42.5" width="60" height="30" as="geometry" />
        </mxCell>
        <mxCell id="gjld3cbzGbYmKHsjepiV-30" value="铸造" style="text;html=1;strokeColor=#6c8ebf;fillColor=#dae8fc;align=center;verticalAlign=middle;whiteSpace=wrap;rounded=0;" vertex="1" parent="gjld3cbzGbYmKHsjepiV-26">
          <mxGeometry x="690" y="42.5" width="60" height="30" as="geometry" />
        </mxCell>
        <mxCell id="gjld3cbzGbYmKHsjepiV-31" value="首发" style="text;html=1;strokeColor=#6c8ebf;fillColor=#dae8fc;align=center;verticalAlign=middle;whiteSpace=wrap;rounded=0;" vertex="1" parent="gjld3cbzGbYmKHsjepiV-26">
          <mxGeometry x="761" y="42.5" width="60" height="30" as="geometry" />
        </mxCell>
        <mxCell id="gjld3cbzGbYmKHsjepiV-32" value="空投" style="text;html=1;strokeColor=#6c8ebf;fillColor=#dae8fc;align=center;verticalAlign=middle;whiteSpace=wrap;rounded=0;" vertex="1" parent="gjld3cbzGbYmKHsjepiV-26">
          <mxGeometry x="830" y="42.5" width="60" height="30" as="geometry" />
        </mxCell>
        <mxCell id="gjld3cbzGbYmKHsjepiV-33" value="钱包" style="text;html=1;strokeColor=#6c8ebf;fillColor=#dae8fc;align=center;verticalAlign=middle;whiteSpace=wrap;rounded=0;" vertex="1" parent="gjld3cbzGbYmKHsjepiV-26">
          <mxGeometry x="900" y="42.5" width="60" height="30" as="geometry" />
        </mxCell>
        <mxCell id="gjld3cbzGbYmKHsjepiV-34" value="系列选择：&amp;nbsp; &amp;nbsp; &amp;nbsp; &amp;nbsp; &amp;nbsp; &amp;nbsp; &amp;nbsp; &amp;nbsp; &amp;nbsp;&lt;span style=&quot;font-family: 等线; font-size: 10.5pt; background-color: initial;&quot;&gt;形象&amp;nbsp; &amp;nbsp; &amp;nbsp; &amp;nbsp; &amp;nbsp; &amp;nbsp; &amp;nbsp; &amp;nbsp; &amp;nbsp; 土地&amp;nbsp; &amp;nbsp; &amp;nbsp; &amp;nbsp; &amp;nbsp; &amp;nbsp;房屋&amp;nbsp; &amp;nbsp; &amp;nbsp; &amp;nbsp; &amp;nbsp; &amp;nbsp; &amp;nbsp; &amp;nbsp;音乐&amp;nbsp; &amp;nbsp; &amp;nbsp; &amp;nbsp; &amp;nbsp; &amp;nbsp; &amp;nbsp; &amp;nbsp; &amp;nbsp; &amp;nbsp; &amp;nbsp; &amp;nbsp;字画&lt;/span&gt;" style="text;html=1;strokeColor=none;fillColor=none;align=center;verticalAlign=middle;whiteSpace=wrap;rounded=0;" vertex="1" parent="gjld3cbzGbYmKHsjepiV-26">
          <mxGeometry x="120" y="140" width="650" height="30" as="geometry" />
        </mxCell>
        <mxCell id="gjld3cbzGbYmKHsjepiV-35" value="" style="rounded=0;whiteSpace=wrap;html=1;fontColor=#000000;" vertex="1" parent="gjld3cbzGbYmKHsjepiV-26">
          <mxGeometry x="50" y="200" width="300" height="530" as="geometry" />
        </mxCell>
        <mxCell id="gjld3cbzGbYmKHsjepiV-36" value="缩略图" style="rounded=0;whiteSpace=wrap;html=1;fillColor=#dae8fc;strokeColor=#6c8ebf;" vertex="1" parent="gjld3cbzGbYmKHsjepiV-26">
          <mxGeometry x="70" y="210" width="260" height="160" as="geometry" />
        </mxCell>
        <mxCell id="gjld3cbzGbYmKHsjepiV-37" value="名称：xx" style="text;html=1;strokeColor=none;fillColor=none;align=left;verticalAlign=middle;whiteSpace=wrap;rounded=0;fontColor=#000000;" vertex="1" parent="gjld3cbzGbYmKHsjepiV-26">
          <mxGeometry x="70" y="390" width="60" height="30" as="geometry" />
        </mxCell>
        <mxCell id="gjld3cbzGbYmKHsjepiV-38" value="&lt;span style=&quot;&quot;&gt;卖单价：&lt;/span&gt;" style="text;html=1;strokeColor=none;fillColor=none;align=left;verticalAlign=middle;whiteSpace=wrap;rounded=0;fontColor=#000000;" vertex="1" parent="gjld3cbzGbYmKHsjepiV-26">
          <mxGeometry x="70" y="480" width="60" height="30" as="geometry" />
        </mxCell>
        <mxCell id="gjld3cbzGbYmKHsjepiV-39" value="&lt;span style=&quot;&quot;&gt;地板价：&lt;/span&gt;" style="text;html=1;strokeColor=none;fillColor=none;align=left;verticalAlign=middle;whiteSpace=wrap;rounded=0;fontColor=#000000;" vertex="1" parent="gjld3cbzGbYmKHsjepiV-26">
          <mxGeometry x="70" y="450" width="60" height="30" as="geometry" />
        </mxCell>
        <mxCell id="gjld3cbzGbYmKHsjepiV-40" value="&lt;span style=&quot;&quot;&gt;最高买单价：&lt;/span&gt;" style="text;html=1;strokeColor=none;fillColor=none;align=left;verticalAlign=middle;whiteSpace=wrap;rounded=0;fontColor=#000000;" vertex="1" parent="gjld3cbzGbYmKHsjepiV-26">
          <mxGeometry x="70" y="510" width="80" height="30" as="geometry" />
        </mxCell>
        <mxCell id="gjld3cbzGbYmKHsjepiV-41" value="&lt;span style=&quot;&quot;&gt;介绍：&lt;/span&gt;" style="text;html=1;strokeColor=none;fillColor=none;align=left;verticalAlign=middle;whiteSpace=wrap;rounded=0;fontColor=#000000;" vertex="1" parent="gjld3cbzGbYmKHsjepiV-26">
          <mxGeometry x="70" y="420" width="80" height="30" as="geometry" />
        </mxCell>
        <mxCell id="gjld3cbzGbYmKHsjepiV-42" value="买单深度" style="text;html=1;strokeColor=none;fillColor=none;align=left;verticalAlign=middle;whiteSpace=wrap;rounded=0;fontColor=#000000;" vertex="1" parent="gjld3cbzGbYmKHsjepiV-26">
          <mxGeometry x="70" y="540" width="80" height="30" as="geometry" />
        </mxCell>
        <mxCell id="gjld3cbzGbYmKHsjepiV-43" value="成交额：" style="text;html=1;strokeColor=none;fillColor=none;align=left;verticalAlign=middle;whiteSpace=wrap;rounded=0;fontColor=#000000;" vertex="1" parent="gjld3cbzGbYmKHsjepiV-26">
          <mxGeometry x="70" y="570" width="80" height="30" as="geometry" />
        </mxCell>
        <mxCell id="gjld3cbzGbYmKHsjepiV-44" value="市值：" style="text;html=1;strokeColor=none;fillColor=none;align=left;verticalAlign=middle;whiteSpace=wrap;rounded=0;fontColor=#000000;" vertex="1" parent="gjld3cbzGbYmKHsjepiV-26">
          <mxGeometry x="70" y="600" width="80" height="30" as="geometry" />
        </mxCell>
        <mxCell id="gjld3cbzGbYmKHsjepiV-45" value="" style="rounded=0;whiteSpace=wrap;html=1;fontColor=#000000;" vertex="1" parent="gjld3cbzGbYmKHsjepiV-26">
          <mxGeometry x="380" y="200" width="300" height="530" as="geometry" />
        </mxCell>
        <mxCell id="gjld3cbzGbYmKHsjepiV-46" value="缩略图" style="rounded=0;whiteSpace=wrap;html=1;fillColor=#dae8fc;strokeColor=#6c8ebf;" vertex="1" parent="gjld3cbzGbYmKHsjepiV-26">
          <mxGeometry x="400" y="210" width="260" height="160" as="geometry" />
        </mxCell>
        <mxCell id="gjld3cbzGbYmKHsjepiV-47" value="名称：xx" style="text;html=1;strokeColor=none;fillColor=none;align=left;verticalAlign=middle;whiteSpace=wrap;rounded=0;fontColor=#000000;" vertex="1" parent="gjld3cbzGbYmKHsjepiV-26">
          <mxGeometry x="400" y="390" width="60" height="30" as="geometry" />
        </mxCell>
        <mxCell id="gjld3cbzGbYmKHsjepiV-48" value="&lt;span style=&quot;&quot;&gt;卖单价：&lt;/span&gt;" style="text;html=1;strokeColor=none;fillColor=none;align=left;verticalAlign=middle;whiteSpace=wrap;rounded=0;fontColor=#000000;" vertex="1" parent="gjld3cbzGbYmKHsjepiV-26">
          <mxGeometry x="400" y="480" width="60" height="30" as="geometry" />
        </mxCell>
        <mxCell id="gjld3cbzGbYmKHsjepiV-49" value="&lt;span style=&quot;&quot;&gt;地板价：&lt;/span&gt;" style="text;html=1;strokeColor=none;fillColor=none;align=left;verticalAlign=middle;whiteSpace=wrap;rounded=0;fontColor=#000000;" vertex="1" parent="gjld3cbzGbYmKHsjepiV-26">
          <mxGeometry x="400" y="450" width="60" height="30" as="geometry" />
        </mxCell>
        <mxCell id="gjld3cbzGbYmKHsjepiV-50" value="&lt;span style=&quot;&quot;&gt;最高买单价：&lt;/span&gt;" style="text;html=1;strokeColor=none;fillColor=none;align=left;verticalAlign=middle;whiteSpace=wrap;rounded=0;fontColor=#000000;" vertex="1" parent="gjld3cbzGbYmKHsjepiV-26">
          <mxGeometry x="400" y="510" width="80" height="30" as="geometry" />
        </mxCell>
        <mxCell id="gjld3cbzGbYmKHsjepiV-51" value="&lt;span style=&quot;&quot;&gt;介绍：&lt;/span&gt;" style="text;html=1;strokeColor=none;fillColor=none;align=left;verticalAlign=middle;whiteSpace=wrap;rounded=0;fontColor=#000000;" vertex="1" parent="gjld3cbzGbYmKHsjepiV-26">
          <mxGeometry x="400" y="420" width="80" height="30" as="geometry" />
        </mxCell>
        <mxCell id="gjld3cbzGbYmKHsjepiV-52" value="买单深度" style="text;html=1;strokeColor=none;fillColor=none;align=left;verticalAlign=middle;whiteSpace=wrap;rounded=0;fontColor=#000000;" vertex="1" parent="gjld3cbzGbYmKHsjepiV-26">
          <mxGeometry x="400" y="540" width="80" height="30" as="geometry" />
        </mxCell>
        <mxCell id="gjld3cbzGbYmKHsjepiV-53" value="成交额：" style="text;html=1;strokeColor=none;fillColor=none;align=left;verticalAlign=middle;whiteSpace=wrap;rounded=0;fontColor=#000000;" vertex="1" parent="gjld3cbzGbYmKHsjepiV-26">
          <mxGeometry x="400" y="570" width="80" height="30" as="geometry" />
        </mxCell>
        <mxCell id="gjld3cbzGbYmKHsjepiV-54" value="市值：" style="text;html=1;strokeColor=none;fillColor=none;align=left;verticalAlign=middle;whiteSpace=wrap;rounded=0;fontColor=#000000;" vertex="1" parent="gjld3cbzGbYmKHsjepiV-26">
          <mxGeometry x="400" y="600" width="80" height="30" as="geometry" />
        </mxCell>
        <mxCell id="gjld3cbzGbYmKHsjepiV-55" value="" style="rounded=0;whiteSpace=wrap;html=1;fontColor=#000000;" vertex="1" parent="gjld3cbzGbYmKHsjepiV-26">
          <mxGeometry x="700" y="200" width="300" height="530" as="geometry" />
        </mxCell>
        <mxCell id="gjld3cbzGbYmKHsjepiV-56" value="缩略图" style="rounded=0;whiteSpace=wrap;html=1;fillColor=#dae8fc;strokeColor=#6c8ebf;" vertex="1" parent="gjld3cbzGbYmKHsjepiV-26">
          <mxGeometry x="720" y="210" width="260" height="160" as="geometry" />
        </mxCell>
        <mxCell id="gjld3cbzGbYmKHsjepiV-57" value="名称：xx" style="text;html=1;strokeColor=none;fillColor=none;align=left;verticalAlign=middle;whiteSpace=wrap;rounded=0;fontColor=#000000;" vertex="1" parent="gjld3cbzGbYmKHsjepiV-26">
          <mxGeometry x="720" y="390" width="60" height="30" as="geometry" />
        </mxCell>
        <mxCell id="gjld3cbzGbYmKHsjepiV-58" value="&lt;span style=&quot;&quot;&gt;卖单价：&lt;/span&gt;" style="text;html=1;strokeColor=none;fillColor=none;align=left;verticalAlign=middle;whiteSpace=wrap;rounded=0;fontColor=#000000;" vertex="1" parent="gjld3cbzGbYmKHsjepiV-26">
          <mxGeometry x="720" y="480" width="60" height="30" as="geometry" />
        </mxCell>
        <mxCell id="gjld3cbzGbYmKHsjepiV-59" value="&lt;span style=&quot;&quot;&gt;地板价：&lt;/span&gt;" style="text;html=1;strokeColor=none;fillColor=none;align=left;verticalAlign=middle;whiteSpace=wrap;rounded=0;fontColor=#000000;" vertex="1" parent="gjld3cbzGbYmKHsjepiV-26">
          <mxGeometry x="720" y="450" width="60" height="30" as="geometry" />
        </mxCell>
        <mxCell id="gjld3cbzGbYmKHsjepiV-60" value="&lt;span style=&quot;&quot;&gt;最高买单价：&lt;/span&gt;" style="text;html=1;strokeColor=none;fillColor=none;align=left;verticalAlign=middle;whiteSpace=wrap;rounded=0;fontColor=#000000;" vertex="1" parent="gjld3cbzGbYmKHsjepiV-26">
          <mxGeometry x="720" y="510" width="80" height="30" as="geometry" />
        </mxCell>
        <mxCell id="gjld3cbzGbYmKHsjepiV-61" value="&lt;span style=&quot;&quot;&gt;介绍：&lt;/span&gt;" style="text;html=1;strokeColor=none;fillColor=none;align=left;verticalAlign=middle;whiteSpace=wrap;rounded=0;fontColor=#000000;" vertex="1" parent="gjld3cbzGbYmKHsjepiV-26">
          <mxGeometry x="720" y="420" width="80" height="30" as="geometry" />
        </mxCell>
        <mxCell id="gjld3cbzGbYmKHsjepiV-62" value="买单深度" style="text;html=1;strokeColor=none;fillColor=none;align=left;verticalAlign=middle;whiteSpace=wrap;rounded=0;fontColor=#000000;" vertex="1" parent="gjld3cbzGbYmKHsjepiV-26">
          <mxGeometry x="720" y="540" width="80" height="30" as="geometry" />
        </mxCell>
        <mxCell id="gjld3cbzGbYmKHsjepiV-63" value="成交额：" style="text;html=1;strokeColor=none;fillColor=none;align=left;verticalAlign=middle;whiteSpace=wrap;rounded=0;fontColor=#000000;" vertex="1" parent="gjld3cbzGbYmKHsjepiV-26">
          <mxGeometry x="720" y="570" width="80" height="30" as="geometry" />
        </mxCell>
        <mxCell id="gjld3cbzGbYmKHsjepiV-64" value="市值：" style="text;html=1;strokeColor=none;fillColor=none;align=left;verticalAlign=middle;whiteSpace=wrap;rounded=0;fontColor=#000000;" vertex="1" parent="gjld3cbzGbYmKHsjepiV-26">
          <mxGeometry x="720" y="600" width="80" height="30" as="geometry" />
        </mxCell>
        <mxCell id="gjld3cbzGbYmKHsjepiV-65" value="铸造者（发行人）：" style="text;html=1;strokeColor=none;fillColor=none;align=left;verticalAlign=middle;whiteSpace=wrap;rounded=0;fontColor=#000000;" vertex="1" parent="gjld3cbzGbYmKHsjepiV-26">
          <mxGeometry x="720" y="630" width="110" height="30" as="geometry" />
        </mxCell>
        <mxCell id="gjld3cbzGbYmKHsjepiV-66" value="排序方式（下拉选择）" style="rounded=1;whiteSpace=wrap;html=1;fillColor=#dae8fc;strokeColor=#6c8ebf;" vertex="1" parent="gjld3cbzGbYmKHsjepiV-26">
          <mxGeometry x="770" y="140" width="150" height="45" as="geometry" />
        </mxCell>
        <mxCell id="gjld3cbzGbYmKHsjepiV-67" value="铸造者（发行人）：" style="text;html=1;strokeColor=none;fillColor=none;align=left;verticalAlign=middle;whiteSpace=wrap;rounded=0;fontColor=#000000;" vertex="1" parent="gjld3cbzGbYmKHsjepiV-26">
          <mxGeometry x="400" y="630" width="110" height="30" as="geometry" />
        </mxCell>
        <mxCell id="gjld3cbzGbYmKHsjepiV-68" value="铸造者（发行人）：" style="text;html=1;strokeColor=none;fillColor=none;align=left;verticalAlign=middle;whiteSpace=wrap;rounded=0;fontColor=#000000;" vertex="1" parent="gjld3cbzGbYmKHsjepiV-26">
          <mxGeometry x="70" y="630" width="110" height="30" as="geometry" />
        </mxCell>
        <mxCell id="gjld3cbzGbYmKHsjepiV-69" value="设置" style="text;html=1;strokeColor=#6c8ebf;fillColor=#dae8fc;align=center;verticalAlign=middle;whiteSpace=wrap;rounded=0;" vertex="1" parent="gjld3cbzGbYmKHsjepiV-26">
          <mxGeometry x="970" y="42.5" width="60" height="30" as="geometry" />
        </mxCell>
        <mxCell id="gjld3cbzGbYmKHsjepiV-70" value="帮助" style="text;html=1;strokeColor=#6c8ebf;fillColor=#dae8fc;align=center;verticalAlign=middle;whiteSpace=wrap;rounded=0;" vertex="1" parent="gjld3cbzGbYmKHsjepiV-26">
          <mxGeometry x="1040" y="42.5" width="60" height="30" as="geometry" />
        </mxCell>
        <mxCell id="gjld3cbzGbYmKHsjepiV-71" value="系列详情" style="swimlane;fontColor=#000000;" vertex="1" parent="1">
          <mxGeometry x="2040" y="1040" width="910" height="780" as="geometry" />
        </mxCell>
        <mxCell id="gjld3cbzGbYmKHsjepiV-72" value="缩略图" style="rounded=0;whiteSpace=wrap;html=1;fillColor=#dae8fc;strokeColor=#6c8ebf;" vertex="1" parent="gjld3cbzGbYmKHsjepiV-71">
          <mxGeometry x="20" y="35" width="260" height="160" as="geometry" />
        </mxCell>
        <mxCell id="gjld3cbzGbYmKHsjepiV-73" value="名称：xx" style="text;html=1;strokeColor=none;fillColor=none;align=left;verticalAlign=middle;whiteSpace=wrap;rounded=0;fontColor=#000000;" vertex="1" parent="gjld3cbzGbYmKHsjepiV-71">
          <mxGeometry x="20" y="210" width="60" height="30" as="geometry" />
        </mxCell>
        <mxCell id="gjld3cbzGbYmKHsjepiV-74" value="&lt;span style=&quot;&quot;&gt;卖单数：100&lt;/span&gt;" style="text;html=1;strokeColor=none;fillColor=none;align=left;verticalAlign=middle;whiteSpace=wrap;rounded=0;fontColor=#000000;" vertex="1" parent="gjld3cbzGbYmKHsjepiV-71">
          <mxGeometry x="20" y="330" width="100" height="30" as="geometry" />
        </mxCell>
        <mxCell id="gjld3cbzGbYmKHsjepiV-75" value="&lt;span style=&quot;&quot;&gt;商品总数：3000&lt;/span&gt;" style="text;html=1;strokeColor=none;fillColor=none;align=left;verticalAlign=middle;whiteSpace=wrap;rounded=0;fontColor=#000000;" vertex="1" parent="gjld3cbzGbYmKHsjepiV-71">
          <mxGeometry x="160" y="300" width="90" height="30" as="geometry" />
        </mxCell>
        <mxCell id="gjld3cbzGbYmKHsjepiV-76" value="&lt;span style=&quot;&quot;&gt;介绍：xxx&lt;/span&gt;" style="text;html=1;strokeColor=none;fillColor=none;align=left;verticalAlign=middle;whiteSpace=wrap;rounded=0;fontColor=#000000;" vertex="1" parent="gjld3cbzGbYmKHsjepiV-71">
          <mxGeometry x="20" y="240" width="80" height="30" as="geometry" />
        </mxCell>
        <mxCell id="gjld3cbzGbYmKHsjepiV-77" value="修改介绍" style="text;html=1;strokeColor=#6c8ebf;fillColor=#dae8fc;align=center;verticalAlign=middle;whiteSpace=wrap;rounded=0;" vertex="1" parent="gjld3cbzGbYmKHsjepiV-71">
          <mxGeometry x="250" y="240" width="60" height="30" as="geometry" />
        </mxCell>
        <mxCell id="gjld3cbzGbYmKHsjepiV-78" value="合约地址（网络）：" style="text;html=1;strokeColor=none;fillColor=none;align=left;verticalAlign=middle;whiteSpace=wrap;rounded=0;fontColor=#000000;" vertex="1" parent="gjld3cbzGbYmKHsjepiV-71">
          <mxGeometry x="20" y="270" width="130" height="30" as="geometry" />
        </mxCell>
        <mxCell id="gjld3cbzGbYmKHsjepiV-79" value="版税率：0.05" style="text;html=1;strokeColor=none;fillColor=none;align=left;verticalAlign=middle;whiteSpace=wrap;rounded=0;fontColor=#000000;" vertex="1" parent="gjld3cbzGbYmKHsjepiV-71">
          <mxGeometry x="20" y="300" width="80" height="30" as="geometry" />
        </mxCell>
        <mxCell id="gjld3cbzGbYmKHsjepiV-80" value="&lt;span style=&quot;&quot;&gt;买单数：80000&lt;/span&gt;" style="text;html=1;strokeColor=none;fillColor=none;align=left;verticalAlign=middle;whiteSpace=wrap;rounded=0;fontColor=#000000;" vertex="1" parent="gjld3cbzGbYmKHsjepiV-71">
          <mxGeometry x="155" y="330" width="100" height="30" as="geometry" />
        </mxCell>
        <mxCell id="gjld3cbzGbYmKHsjepiV-81" value="" style="rounded=0;whiteSpace=wrap;html=1;fontColor=#000000;" vertex="1" parent="gjld3cbzGbYmKHsjepiV-71">
          <mxGeometry x="230" y="440" width="190" height="260" as="geometry" />
        </mxCell>
        <mxCell id="gjld3cbzGbYmKHsjepiV-82" value="缩略图" style="rounded=0;whiteSpace=wrap;html=1;fillColor=#dae8fc;strokeColor=#6c8ebf;" vertex="1" parent="gjld3cbzGbYmKHsjepiV-71">
          <mxGeometry x="250" y="450" width="150" height="140" as="geometry" />
        </mxCell>
        <mxCell id="gjld3cbzGbYmKHsjepiV-83" value="名称：合约名 TokenID" style="text;html=1;strokeColor=none;fillColor=none;align=left;verticalAlign=middle;whiteSpace=wrap;rounded=0;fontColor=#000000;" vertex="1" parent="gjld3cbzGbYmKHsjepiV-71">
          <mxGeometry x="250" y="630" width="150" height="30" as="geometry" />
        </mxCell>
        <mxCell id="gjld3cbzGbYmKHsjepiV-84" value="价格：100" style="text;html=1;strokeColor=none;fillColor=none;align=left;verticalAlign=middle;whiteSpace=wrap;rounded=0;fontColor=#000000;" vertex="1" parent="gjld3cbzGbYmKHsjepiV-71">
          <mxGeometry x="250" y="660" width="100" height="30" as="geometry" />
        </mxCell>
        <mxCell id="gjld3cbzGbYmKHsjepiV-85" value="集合：xx" style="text;html=1;strokeColor=none;fillColor=none;align=left;verticalAlign=middle;whiteSpace=wrap;rounded=0;fontColor=#000000;" vertex="1" parent="gjld3cbzGbYmKHsjepiV-71">
          <mxGeometry x="370" y="320" width="100" height="30" as="geometry" />
        </mxCell>
        <mxCell id="gjld3cbzGbYmKHsjepiV-86" value="搜索" style="rounded=1;whiteSpace=wrap;html=1;fillColor=#dae8fc;strokeColor=#6c8ebf;" vertex="1" parent="gjld3cbzGbYmKHsjepiV-71">
          <mxGeometry x="195" y="380" width="500" height="45" as="geometry" />
        </mxCell>
        <mxCell id="gjld3cbzGbYmKHsjepiV-87" value="排序方式（下拉选择）" style="rounded=1;whiteSpace=wrap;html=1;fillColor=#dae8fc;strokeColor=#6c8ebf;" vertex="1" parent="gjld3cbzGbYmKHsjepiV-71">
          <mxGeometry x="715" y="380" width="150" height="45" as="geometry" />
        </mxCell>
        <mxCell id="gjld3cbzGbYmKHsjepiV-88" value="100" style="rounded=1;whiteSpace=wrap;html=1;fillColor=#dae8fc;strokeColor=#6c8ebf;" vertex="1" parent="gjld3cbzGbYmKHsjepiV-71">
          <mxGeometry x="70" y="520" width="50" height="30" as="geometry" />
        </mxCell>
        <mxCell id="gjld3cbzGbYmKHsjepiV-89" value="单价：" style="text;html=1;align=center;verticalAlign=middle;resizable=0;points=[];autosize=1;strokeColor=none;fillColor=none;fontColor=#000000;" vertex="1" parent="gjld3cbzGbYmKHsjepiV-71">
          <mxGeometry x="10" y="490" width="60" height="30" as="geometry" />
        </mxCell>
        <mxCell id="gjld3cbzGbYmKHsjepiV-90" value="10000" style="rounded=1;whiteSpace=wrap;html=1;fillColor=#dae8fc;strokeColor=#6c8ebf;" vertex="1" parent="gjld3cbzGbYmKHsjepiV-71">
          <mxGeometry x="145" y="520" width="50" height="30" as="geometry" />
        </mxCell>
        <mxCell id="gjld3cbzGbYmKHsjepiV-91" value="To" style="text;html=1;align=center;verticalAlign=middle;resizable=0;points=[];autosize=1;strokeColor=none;fillColor=none;fontColor=#000000;" vertex="1" parent="gjld3cbzGbYmKHsjepiV-71">
          <mxGeometry x="110" y="520" width="40" height="30" as="geometry" />
        </mxCell>
        <mxCell id="gjld3cbzGbYmKHsjepiV-92" value="买" style="text;html=1;strokeColor=#6c8ebf;fillColor=#dae8fc;align=center;verticalAlign=middle;whiteSpace=wrap;rounded=0;" vertex="1" parent="gjld3cbzGbYmKHsjepiV-71">
          <mxGeometry x="30" y="425" width="60" height="30" as="geometry" />
        </mxCell>
        <mxCell id="gjld3cbzGbYmKHsjepiV-93" value="卖" style="text;html=1;strokeColor=#6c8ebf;fillColor=#dae8fc;align=center;verticalAlign=middle;whiteSpace=wrap;rounded=0;" vertex="1" parent="gjld3cbzGbYmKHsjepiV-71">
          <mxGeometry x="100" y="450" width="60" height="30" as="geometry" />
        </mxCell>
        <mxCell id="gjld3cbzGbYmKHsjepiV-94" value="ETH" style="rounded=1;whiteSpace=wrap;html=1;fillColor=#dae8fc;strokeColor=#6c8ebf;" vertex="1" parent="gjld3cbzGbYmKHsjepiV-71">
          <mxGeometry x="15" y="520" width="50" height="30" as="geometry" />
        </mxCell>
        <mxCell id="gjld3cbzGbYmKHsjepiV-95" value="" style="endArrow=none;html=1;rounded=0;fontColor=#000000;" edge="1" parent="gjld3cbzGbYmKHsjepiV-71">
          <mxGeometry width="50" height="50" relative="1" as="geometry">
            <mxPoint x="80" y="485" as="sourcePoint" />
            <mxPoint x="110" y="425" as="targetPoint" />
          </mxGeometry>
        </mxCell>
        <mxCell id="gjld3cbzGbYmKHsjepiV-96" value="" style="rounded=0;whiteSpace=wrap;html=1;fontColor=#000000;" vertex="1" parent="gjld3cbzGbYmKHsjepiV-71">
          <mxGeometry x="440" y="440" width="190" height="260" as="geometry" />
        </mxCell>
        <mxCell id="gjld3cbzGbYmKHsjepiV-97" value="缩略图" style="rounded=0;whiteSpace=wrap;html=1;fillColor=#dae8fc;strokeColor=#6c8ebf;" vertex="1" parent="gjld3cbzGbYmKHsjepiV-71">
          <mxGeometry x="460" y="450" width="150" height="140" as="geometry" />
        </mxCell>
        <mxCell id="gjld3cbzGbYmKHsjepiV-98" value="名称：合约名 TokenID" style="text;html=1;strokeColor=none;fillColor=none;align=left;verticalAlign=middle;whiteSpace=wrap;rounded=0;fontColor=#000000;" vertex="1" parent="gjld3cbzGbYmKHsjepiV-71">
          <mxGeometry x="460" y="630" width="150" height="30" as="geometry" />
        </mxCell>
        <mxCell id="gjld3cbzGbYmKHsjepiV-99" value="价格：100" style="text;html=1;strokeColor=none;fillColor=none;align=left;verticalAlign=middle;whiteSpace=wrap;rounded=0;fontColor=#000000;" vertex="1" parent="gjld3cbzGbYmKHsjepiV-71">
          <mxGeometry x="460" y="660" width="100" height="30" as="geometry" />
        </mxCell>
        <mxCell id="gjld3cbzGbYmKHsjepiV-100" value="" style="rounded=0;whiteSpace=wrap;html=1;fontColor=#000000;" vertex="1" parent="gjld3cbzGbYmKHsjepiV-71">
          <mxGeometry x="640" y="440" width="190" height="260" as="geometry" />
        </mxCell>
        <mxCell id="gjld3cbzGbYmKHsjepiV-101" value="缩略图" style="rounded=0;whiteSpace=wrap;html=1;fillColor=#dae8fc;strokeColor=#6c8ebf;" vertex="1" parent="gjld3cbzGbYmKHsjepiV-71">
          <mxGeometry x="660" y="450" width="150" height="140" as="geometry" />
        </mxCell>
        <mxCell id="gjld3cbzGbYmKHsjepiV-102" value="名称：合约名 TokenID" style="text;html=1;strokeColor=none;fillColor=none;align=left;verticalAlign=middle;whiteSpace=wrap;rounded=0;fontColor=#000000;" vertex="1" parent="gjld3cbzGbYmKHsjepiV-71">
          <mxGeometry x="660" y="630" width="150" height="30" as="geometry" />
        </mxCell>
        <mxCell id="gjld3cbzGbYmKHsjepiV-103" value="价格：100" style="text;html=1;strokeColor=none;fillColor=none;align=left;verticalAlign=middle;whiteSpace=wrap;rounded=0;fontColor=#000000;" vertex="1" parent="gjld3cbzGbYmKHsjepiV-71">
          <mxGeometry x="660" y="660" width="100" height="30" as="geometry" />
        </mxCell>
        <mxCell id="gjld3cbzGbYmKHsjepiV-104" value="商品详情" style="swimlane;fontColor=#000000;" vertex="1" parent="1">
          <mxGeometry x="2135" y="1990" width="760" height="1180" as="geometry" />
        </mxCell>
        <mxCell id="gjld3cbzGbYmKHsjepiV-105" value="缩略图" style="rounded=0;whiteSpace=wrap;html=1;fillColor=#dae8fc;strokeColor=#6c8ebf;" vertex="1" parent="gjld3cbzGbYmKHsjepiV-104">
          <mxGeometry x="220" y="40" width="260" height="160" as="geometry" />
        </mxCell>
        <mxCell id="gjld3cbzGbYmKHsjepiV-106" value="&lt;span style=&quot;&quot;&gt;成交价：&lt;/span&gt;" style="text;html=1;strokeColor=none;fillColor=none;align=left;verticalAlign=middle;whiteSpace=wrap;rounded=0;fontColor=#000000;" vertex="1" parent="gjld3cbzGbYmKHsjepiV-104">
          <mxGeometry x="120" y="305" width="100" height="30" as="geometry" />
        </mxCell>
        <mxCell id="gjld3cbzGbYmKHsjepiV-107" value="&lt;span style=&quot;&quot;&gt;持有人（发行人）/地址：&lt;/span&gt;" style="text;html=1;strokeColor=none;fillColor=none;align=left;verticalAlign=middle;whiteSpace=wrap;rounded=0;fontColor=#000000;" vertex="1" parent="gjld3cbzGbYmKHsjepiV-104">
          <mxGeometry x="120" y="245" width="140" height="30" as="geometry" />
        </mxCell>
        <mxCell id="gjld3cbzGbYmKHsjepiV-108" value="版税率：0.05" style="text;html=1;strokeColor=none;fillColor=none;align=left;verticalAlign=middle;whiteSpace=wrap;rounded=0;fontColor=#000000;" vertex="1" parent="gjld3cbzGbYmKHsjepiV-104">
          <mxGeometry x="120" y="275" width="80" height="30" as="geometry" />
        </mxCell>
        <mxCell id="gjld3cbzGbYmKHsjepiV-109" value="名称：合约名 TokenID" style="text;html=1;strokeColor=none;fillColor=none;align=left;verticalAlign=middle;whiteSpace=wrap;rounded=0;fontColor=#000000;" vertex="1" parent="gjld3cbzGbYmKHsjepiV-104">
          <mxGeometry x="120" y="215" width="150" height="30" as="geometry" />
        </mxCell>
        <mxCell id="gjld3cbzGbYmKHsjepiV-110" value="买卖深度图" style="rounded=0;whiteSpace=wrap;html=1;fillColor=#dae8fc;strokeColor=#6c8ebf;" vertex="1" parent="gjld3cbzGbYmKHsjepiV-104">
          <mxGeometry x="250" y="370" width="490" height="260" as="geometry" />
        </mxCell>
        <mxCell id="gjld3cbzGbYmKHsjepiV-111" value="卖" style="text;html=1;strokeColor=#6c8ebf;fillColor=#dae8fc;align=center;verticalAlign=middle;whiteSpace=wrap;rounded=0;" vertex="1" parent="gjld3cbzGbYmKHsjepiV-104">
          <mxGeometry x="490" y="285" width="60" height="30" as="geometry" />
        </mxCell>
        <mxCell id="gjld3cbzGbYmKHsjepiV-112" value="买" style="text;html=1;strokeColor=#6c8ebf;fillColor=#dae8fc;align=center;verticalAlign=middle;whiteSpace=wrap;rounded=0;" vertex="1" parent="gjld3cbzGbYmKHsjepiV-104">
          <mxGeometry x="490" y="225" width="60" height="30" as="geometry" />
        </mxCell>
        <mxCell id="gjld3cbzGbYmKHsjepiV-113" value="" style="rounded=0;whiteSpace=wrap;html=1;fillColor=#dae8fc;strokeColor=#6c8ebf;" vertex="1" parent="gjld3cbzGbYmKHsjepiV-104">
          <mxGeometry x="15" y="370" width="205" height="520" as="geometry" />
        </mxCell>
        <mxCell id="gjld3cbzGbYmKHsjepiV-114" value="属性1&lt;br&gt;xx&lt;br&gt;300" style="rounded=1;whiteSpace=wrap;html=1;fillColor=#ffe6cc;strokeColor=#d79b00;" vertex="1" parent="gjld3cbzGbYmKHsjepiV-104">
          <mxGeometry x="30" y="380" width="80" height="80" as="geometry" />
        </mxCell>
        <mxCell id="gjld3cbzGbYmKHsjepiV-115" value="属性2&lt;br&gt;xx&lt;br&gt;300" style="rounded=1;whiteSpace=wrap;html=1;fillColor=#ffe6cc;strokeColor=#d79b00;" vertex="1" parent="gjld3cbzGbYmKHsjepiV-104">
          <mxGeometry x="120" y="380" width="80" height="80" as="geometry" />
        </mxCell>
        <mxCell id="gjld3cbzGbYmKHsjepiV-116" value="属性3&lt;br&gt;xx&lt;br&gt;300" style="rounded=1;whiteSpace=wrap;html=1;fillColor=#ffe6cc;strokeColor=#d79b00;" vertex="1" parent="gjld3cbzGbYmKHsjepiV-104">
          <mxGeometry x="30" y="470" width="80" height="70" as="geometry" />
        </mxCell>
        <mxCell id="gjld3cbzGbYmKHsjepiV-117" value="属性4&lt;br&gt;xx&lt;br&gt;300" style="rounded=1;whiteSpace=wrap;html=1;fillColor=#ffe6cc;strokeColor=#d79b00;" vertex="1" parent="gjld3cbzGbYmKHsjepiV-104">
          <mxGeometry x="120" y="470" width="75" height="70" as="geometry" />
        </mxCell>
        <mxCell id="gjld3cbzGbYmKHsjepiV-118" value="7日/30日/1年均价蜡烛图" style="rounded=0;whiteSpace=wrap;html=1;fillColor=#dae8fc;strokeColor=#6c8ebf;" vertex="1" parent="gjld3cbzGbYmKHsjepiV-104">
          <mxGeometry x="250" y="640" width="490" height="240" as="geometry" />
        </mxCell>
        <mxCell id="gjld3cbzGbYmKHsjepiV-119" value="搜索" style="rounded=1;whiteSpace=wrap;html=1;fillColor=#dae8fc;strokeColor=#6c8ebf;" vertex="1" parent="gjld3cbzGbYmKHsjepiV-104">
          <mxGeometry x="120" y="910" width="500" height="45" as="geometry" />
        </mxCell>
        <mxCell id="gjld3cbzGbYmKHsjepiV-120" value="Event&lt;span style=&quot;white-space: pre;&quot;&gt;	&lt;span style=&quot;white-space: pre;&quot;&gt;	&lt;/span&gt;&lt;/span&gt;&lt;span style=&quot;white-space: pre;&quot;&gt;	&lt;/span&gt;Price&lt;span style=&quot;white-space: pre;&quot;&gt;	&lt;span style=&quot;white-space: pre;&quot;&gt;	&lt;/span&gt;&lt;/span&gt;&lt;span style=&quot;white-space: pre;&quot;&gt;	&lt;/span&gt;From&lt;span style=&quot;white-space: pre;&quot;&gt;	&lt;span style=&quot;white-space: pre;&quot;&gt;	&lt;/span&gt;&lt;/span&gt;&lt;span style=&quot;white-space: pre;&quot;&gt;	&lt;/span&gt;To&lt;span style=&quot;white-space: pre;&quot;&gt;	&lt;/span&gt;&lt;span style=&quot;white-space: pre;&quot;&gt;	&lt;span style=&quot;white-space: pre;&quot;&gt;	&lt;/span&gt;&lt;/span&gt;Date" style="text;html=1;strokeColor=none;fillColor=none;align=center;verticalAlign=middle;whiteSpace=wrap;rounded=0;fontColor=#000000;" vertex="1" parent="gjld3cbzGbYmKHsjepiV-104">
          <mxGeometry x="70" y="990" width="550" height="40" as="geometry" />
        </mxCell>
        <mxCell id="gjld3cbzGbYmKHsjepiV-121" value="Sale" style="text;html=1;align=center;verticalAlign=middle;resizable=0;points=[];autosize=1;strokeColor=none;fillColor=none;fontColor=#000000;" vertex="1" parent="gjld3cbzGbYmKHsjepiV-104">
          <mxGeometry x="125" y="1025" width="50" height="30" as="geometry" />
        </mxCell>
        <mxCell id="gjld3cbzGbYmKHsjepiV-122" value="1100.0" style="text;html=1;align=center;verticalAlign=middle;resizable=0;points=[];autosize=1;strokeColor=none;fillColor=none;fontColor=#000000;" vertex="1" parent="gjld3cbzGbYmKHsjepiV-104">
          <mxGeometry x="225" y="1025" width="60" height="30" as="geometry" />
        </mxCell>
        <mxCell id="gjld3cbzGbYmKHsjepiV-123" value="xxx" style="text;html=1;align=center;verticalAlign=middle;resizable=0;points=[];autosize=1;strokeColor=none;fillColor=none;fontColor=#000000;" vertex="1" parent="gjld3cbzGbYmKHsjepiV-104">
          <mxGeometry x="340" y="1025" width="40" height="30" as="geometry" />
        </mxCell>
        <mxCell id="gjld3cbzGbYmKHsjepiV-124" value="xxx" style="text;html=1;align=center;verticalAlign=middle;resizable=0;points=[];autosize=1;strokeColor=none;fillColor=none;fontColor=#000000;" vertex="1" parent="gjld3cbzGbYmKHsjepiV-104">
          <mxGeometry x="440" y="1025" width="40" height="30" as="geometry" />
        </mxCell>
        <mxCell id="gjld3cbzGbYmKHsjepiV-125" value="Sale" style="text;html=1;align=center;verticalAlign=middle;resizable=0;points=[];autosize=1;strokeColor=none;fillColor=none;fontColor=#000000;" vertex="1" parent="gjld3cbzGbYmKHsjepiV-104">
          <mxGeometry x="125" y="1055" width="50" height="30" as="geometry" />
        </mxCell>
        <mxCell id="gjld3cbzGbYmKHsjepiV-126" value="5000.0" style="text;html=1;align=center;verticalAlign=middle;resizable=0;points=[];autosize=1;strokeColor=none;fillColor=none;fontColor=#000000;" vertex="1" parent="gjld3cbzGbYmKHsjepiV-104">
          <mxGeometry x="225" y="1055" width="60" height="30" as="geometry" />
        </mxCell>
        <mxCell id="gjld3cbzGbYmKHsjepiV-127" value="xxx" style="text;html=1;align=center;verticalAlign=middle;resizable=0;points=[];autosize=1;strokeColor=none;fillColor=none;fontColor=#000000;" vertex="1" parent="gjld3cbzGbYmKHsjepiV-104">
          <mxGeometry x="340" y="1055" width="40" height="30" as="geometry" />
        </mxCell>
        <mxCell id="gjld3cbzGbYmKHsjepiV-128" value="xxx" style="text;html=1;align=center;verticalAlign=middle;resizable=0;points=[];autosize=1;strokeColor=none;fillColor=none;fontColor=#000000;" vertex="1" parent="gjld3cbzGbYmKHsjepiV-104">
          <mxGeometry x="440" y="1055" width="40" height="30" as="geometry" />
        </mxCell>
        <mxCell id="gjld3cbzGbYmKHsjepiV-129" value="交易（ 买）" style="swimlane;fontColor=#000000;" vertex="1" parent="1">
          <mxGeometry x="2135" y="3430" width="760" height="1190" as="geometry" />
        </mxCell>
        <mxCell id="gjld3cbzGbYmKHsjepiV-130" value="搜索合约" style="rounded=1;whiteSpace=wrap;html=1;fillColor=#dae8fc;strokeColor=#6c8ebf;" vertex="1" parent="gjld3cbzGbYmKHsjepiV-129">
          <mxGeometry x="65" y="105.75" width="115" height="45" as="geometry" />
        </mxCell>
        <mxCell id="gjld3cbzGbYmKHsjepiV-131" value="" style="rounded=0;whiteSpace=wrap;html=1;fillColor=#dae8fc;strokeColor=#6c8ebf;" vertex="1" parent="gjld3cbzGbYmKHsjepiV-129">
          <mxGeometry x="250" y="100" width="190" height="271" as="geometry" />
        </mxCell>
        <mxCell id="gjld3cbzGbYmKHsjepiV-132" value="1" style="rounded=1;whiteSpace=wrap;html=1;fontColor=#000000;" vertex="1" parent="gjld3cbzGbYmKHsjepiV-129">
          <mxGeometry x="300" y="145" width="120" height="60" as="geometry" />
        </mxCell>
        <mxCell id="gjld3cbzGbYmKHsjepiV-133" value="2" style="rounded=1;whiteSpace=wrap;html=1;fontColor=#000000;" vertex="1" parent="gjld3cbzGbYmKHsjepiV-129">
          <mxGeometry x="300" y="213.5" width="120" height="60" as="geometry" />
        </mxCell>
        <mxCell id="gjld3cbzGbYmKHsjepiV-134" value="3" style="rounded=1;whiteSpace=wrap;html=1;fontColor=#000000;" vertex="1" parent="gjld3cbzGbYmKHsjepiV-129">
          <mxGeometry x="300" y="293.5" width="120" height="60" as="geometry" />
        </mxCell>
        <mxCell id="gjld3cbzGbYmKHsjepiV-135" value="搜索TokenID" style="rounded=1;whiteSpace=wrap;html=1;fillColor=#dae8fc;strokeColor=#6c8ebf;" vertex="1" parent="gjld3cbzGbYmKHsjepiV-129">
          <mxGeometry x="302.5" y="105.75" width="115" height="33.5" as="geometry" />
        </mxCell>
        <mxCell id="gjld3cbzGbYmKHsjepiV-136" value="✔" style="rounded=1;whiteSpace=wrap;html=1;fillColor=#dae8fc;strokeColor=#6c8ebf;" vertex="1" parent="gjld3cbzGbYmKHsjepiV-129">
          <mxGeometry x="265" y="108.63" width="30" height="27.75" as="geometry" />
        </mxCell>
        <mxCell id="gjld3cbzGbYmKHsjepiV-137" value="✔" style="rounded=1;whiteSpace=wrap;html=1;fillColor=#dae8fc;strokeColor=#6c8ebf;" vertex="1" parent="gjld3cbzGbYmKHsjepiV-129">
          <mxGeometry x="265" y="161.12" width="25" height="22.38" as="geometry" />
        </mxCell>
        <mxCell id="gjld3cbzGbYmKHsjepiV-138" value="✔" style="rounded=1;whiteSpace=wrap;html=1;fillColor=#dae8fc;strokeColor=#6c8ebf;" vertex="1" parent="gjld3cbzGbYmKHsjepiV-129">
          <mxGeometry x="265" y="232.30999999999995" width="25" height="22.38" as="geometry" />
        </mxCell>
        <mxCell id="gjld3cbzGbYmKHsjepiV-139" value="✔" style="rounded=1;whiteSpace=wrap;html=1;fillColor=#dae8fc;strokeColor=#6c8ebf;" vertex="1" parent="gjld3cbzGbYmKHsjepiV-129">
          <mxGeometry x="265" y="312.30999999999995" width="25" height="22.38" as="geometry" />
        </mxCell>
        <mxCell id="gjld3cbzGbYmKHsjepiV-140" value="" style="shape=singleArrow;whiteSpace=wrap;html=1;fontColor=#000000;" vertex="1" parent="gjld3cbzGbYmKHsjepiV-129">
          <mxGeometry x="195" y="101.11999999999989" width="50" height="60" as="geometry" />
        </mxCell>
        <mxCell id="gjld3cbzGbYmKHsjepiV-141" value="买入成本/NFT：xxx" style="text;html=1;strokeColor=none;fillColor=none;align=left;verticalAlign=middle;whiteSpace=wrap;rounded=0;fontColor=#000000;" vertex="1" parent="gjld3cbzGbYmKHsjepiV-129">
          <mxGeometry x="65" y="403.5" width="145" height="30" as="geometry" />
        </mxCell>
        <mxCell id="gjld3cbzGbYmKHsjepiV-142" value="提交买单" style="rounded=1;whiteSpace=wrap;html=1;fillColor=#dae8fc;strokeColor=#6c8ebf;" vertex="1" parent="gjld3cbzGbYmKHsjepiV-129">
          <mxGeometry x="455" y="398.5" width="120" height="40" as="geometry" />
        </mxCell>
        <mxCell id="gjld3cbzGbYmKHsjepiV-143" value="买卖深度图" style="rounded=0;whiteSpace=wrap;html=1;fillColor=#dae8fc;strokeColor=#6c8ebf;" vertex="1" parent="gjld3cbzGbYmKHsjepiV-129">
          <mxGeometry x="455" y="105.5" width="275" height="260" as="geometry" />
        </mxCell>
        <mxCell id="gjld3cbzGbYmKHsjepiV-144" value="7日/30日/1年均价蜡烛图" style="rounded=0;whiteSpace=wrap;html=1;fillColor=#dae8fc;strokeColor=#6c8ebf;" vertex="1" parent="gjld3cbzGbYmKHsjepiV-129">
          <mxGeometry x="120" y="560" width="490" height="240" as="geometry" />
        </mxCell>
        <mxCell id="gjld3cbzGbYmKHsjepiV-145" value="搜索" style="rounded=1;whiteSpace=wrap;html=1;fillColor=#dae8fc;strokeColor=#6c8ebf;" vertex="1" parent="gjld3cbzGbYmKHsjepiV-129">
          <mxGeometry x="130" y="920" width="500" height="45" as="geometry" />
        </mxCell>
        <mxCell id="gjld3cbzGbYmKHsjepiV-146" value="Event&lt;span style=&quot;white-space: pre;&quot;&gt;	&lt;span style=&quot;white-space: pre;&quot;&gt;	&lt;/span&gt;&lt;/span&gt;&lt;span style=&quot;white-space: pre;&quot;&gt;	&lt;/span&gt;Price&lt;span style=&quot;white-space: pre;&quot;&gt;	&lt;span style=&quot;white-space: pre;&quot;&gt;	&lt;/span&gt;&lt;/span&gt;&lt;span style=&quot;white-space: pre;&quot;&gt;	&lt;/span&gt;From&lt;span style=&quot;white-space: pre;&quot;&gt;	&lt;span style=&quot;white-space: pre;&quot;&gt;	&lt;/span&gt;&lt;/span&gt;&lt;span style=&quot;white-space: pre;&quot;&gt;	&lt;/span&gt;To&lt;span style=&quot;white-space: pre;&quot;&gt;	&lt;/span&gt;&lt;span style=&quot;white-space: pre;&quot;&gt;	&lt;span style=&quot;white-space: pre;&quot;&gt;	&lt;/span&gt;&lt;/span&gt;Date" style="text;html=1;strokeColor=none;fillColor=none;align=center;verticalAlign=middle;whiteSpace=wrap;rounded=0;fontColor=#000000;" vertex="1" parent="gjld3cbzGbYmKHsjepiV-129">
          <mxGeometry x="80" y="1000" width="550" height="40" as="geometry" />
        </mxCell>
        <mxCell id="gjld3cbzGbYmKHsjepiV-147" value="Sale" style="text;html=1;align=center;verticalAlign=middle;resizable=0;points=[];autosize=1;strokeColor=none;fillColor=none;fontColor=#000000;" vertex="1" parent="gjld3cbzGbYmKHsjepiV-129">
          <mxGeometry x="135" y="1035" width="50" height="30" as="geometry" />
        </mxCell>
        <mxCell id="gjld3cbzGbYmKHsjepiV-148" value="1100.0" style="text;html=1;align=center;verticalAlign=middle;resizable=0;points=[];autosize=1;strokeColor=none;fillColor=none;fontColor=#000000;" vertex="1" parent="gjld3cbzGbYmKHsjepiV-129">
          <mxGeometry x="235" y="1035" width="60" height="30" as="geometry" />
        </mxCell>
        <mxCell id="gjld3cbzGbYmKHsjepiV-149" value="xxx" style="text;html=1;align=center;verticalAlign=middle;resizable=0;points=[];autosize=1;strokeColor=none;fillColor=none;fontColor=#000000;" vertex="1" parent="gjld3cbzGbYmKHsjepiV-129">
          <mxGeometry x="350" y="1035" width="40" height="30" as="geometry" />
        </mxCell>
        <mxCell id="gjld3cbzGbYmKHsjepiV-150" value="xxx" style="text;html=1;align=center;verticalAlign=middle;resizable=0;points=[];autosize=1;strokeColor=none;fillColor=none;fontColor=#000000;" vertex="1" parent="gjld3cbzGbYmKHsjepiV-129">
          <mxGeometry x="450" y="1035" width="40" height="30" as="geometry" />
        </mxCell>
        <mxCell id="gjld3cbzGbYmKHsjepiV-151" value="Sale" style="text;html=1;align=center;verticalAlign=middle;resizable=0;points=[];autosize=1;strokeColor=none;fillColor=none;fontColor=#000000;" vertex="1" parent="gjld3cbzGbYmKHsjepiV-129">
          <mxGeometry x="135" y="1065" width="50" height="30" as="geometry" />
        </mxCell>
        <mxCell id="gjld3cbzGbYmKHsjepiV-152" value="5000.0" style="text;html=1;align=center;verticalAlign=middle;resizable=0;points=[];autosize=1;strokeColor=none;fillColor=none;fontColor=#000000;" vertex="1" parent="gjld3cbzGbYmKHsjepiV-129">
          <mxGeometry x="235" y="1065" width="60" height="30" as="geometry" />
        </mxCell>
        <mxCell id="gjld3cbzGbYmKHsjepiV-153" value="xxx" style="text;html=1;align=center;verticalAlign=middle;resizable=0;points=[];autosize=1;strokeColor=none;fillColor=none;fontColor=#000000;" vertex="1" parent="gjld3cbzGbYmKHsjepiV-129">
          <mxGeometry x="350" y="1065" width="40" height="30" as="geometry" />
        </mxCell>
        <mxCell id="gjld3cbzGbYmKHsjepiV-154" value="xxx" style="text;html=1;align=center;verticalAlign=middle;resizable=0;points=[];autosize=1;strokeColor=none;fillColor=none;fontColor=#000000;" vertex="1" parent="gjld3cbzGbYmKHsjepiV-129">
          <mxGeometry x="450" y="1065" width="40" height="30" as="geometry" />
        </mxCell>
        <mxCell id="gjld3cbzGbYmKHsjepiV-155" value="买" style="text;html=1;strokeColor=#6c8ebf;fillColor=#dae8fc;align=center;verticalAlign=middle;whiteSpace=wrap;rounded=0;" vertex="1" parent="gjld3cbzGbYmKHsjepiV-129">
          <mxGeometry x="15" y="30" width="60" height="30" as="geometry" />
        </mxCell>
        <mxCell id="gjld3cbzGbYmKHsjepiV-156" value="卖" style="text;html=1;strokeColor=#6c8ebf;fillColor=#dae8fc;align=center;verticalAlign=middle;whiteSpace=wrap;rounded=0;" vertex="1" parent="gjld3cbzGbYmKHsjepiV-129">
          <mxGeometry x="85" y="55" width="60" height="30" as="geometry" />
        </mxCell>
        <mxCell id="gjld3cbzGbYmKHsjepiV-157" value="铸造" style="swimlane;fontColor=#000000;" vertex="1" parent="1">
          <mxGeometry x="2135" y="6480" width="760" height="1180" as="geometry" />
        </mxCell>
        <mxCell id="gjld3cbzGbYmKHsjepiV-158" value="缩略图" style="rounded=0;whiteSpace=wrap;html=1;fillColor=#dae8fc;strokeColor=#6c8ebf;" vertex="1" parent="gjld3cbzGbYmKHsjepiV-157">
          <mxGeometry x="119" y="180" width="260" height="160" as="geometry" />
        </mxCell>
        <mxCell id="gjld3cbzGbYmKHsjepiV-159" value="名称：xx" style="text;html=1;strokeColor=none;fillColor=none;align=left;verticalAlign=middle;whiteSpace=wrap;rounded=0;fontColor=#000000;" vertex="1" parent="gjld3cbzGbYmKHsjepiV-157">
          <mxGeometry x="119" y="360" width="60" height="30" as="geometry" />
        </mxCell>
        <mxCell id="gjld3cbzGbYmKHsjepiV-160" value="&lt;span style=&quot;&quot;&gt;卖单价：&lt;/span&gt;" style="text;html=1;strokeColor=none;fillColor=none;align=left;verticalAlign=middle;whiteSpace=wrap;rounded=0;fontColor=#000000;" vertex="1" parent="gjld3cbzGbYmKHsjepiV-157">
          <mxGeometry x="119" y="450" width="60" height="30" as="geometry" />
        </mxCell>
        <mxCell id="gjld3cbzGbYmKHsjepiV-161" value="&lt;span style=&quot;&quot;&gt;地板价：&lt;/span&gt;" style="text;html=1;strokeColor=none;fillColor=none;align=left;verticalAlign=middle;whiteSpace=wrap;rounded=0;fontColor=#000000;" vertex="1" parent="gjld3cbzGbYmKHsjepiV-157">
          <mxGeometry x="119" y="420" width="60" height="30" as="geometry" />
        </mxCell>
        <mxCell id="gjld3cbzGbYmKHsjepiV-162" value="&lt;span style=&quot;&quot;&gt;最高买单价：&lt;/span&gt;" style="text;html=1;strokeColor=none;fillColor=none;align=left;verticalAlign=middle;whiteSpace=wrap;rounded=0;fontColor=#000000;" vertex="1" parent="gjld3cbzGbYmKHsjepiV-157">
          <mxGeometry x="119" y="480" width="80" height="30" as="geometry" />
        </mxCell>
        <mxCell id="gjld3cbzGbYmKHsjepiV-163" value="&lt;span style=&quot;&quot;&gt;介绍：&lt;/span&gt;" style="text;html=1;strokeColor=none;fillColor=none;align=left;verticalAlign=middle;whiteSpace=wrap;rounded=0;fontColor=#000000;" vertex="1" parent="gjld3cbzGbYmKHsjepiV-157">
          <mxGeometry x="119" y="390" width="80" height="30" as="geometry" />
        </mxCell>
        <mxCell id="gjld3cbzGbYmKHsjepiV-164" value="买单深度" style="text;html=1;strokeColor=none;fillColor=none;align=left;verticalAlign=middle;whiteSpace=wrap;rounded=0;fontColor=#000000;" vertex="1" parent="gjld3cbzGbYmKHsjepiV-157">
          <mxGeometry x="119" y="510" width="80" height="30" as="geometry" />
        </mxCell>
        <mxCell id="gjld3cbzGbYmKHsjepiV-165" value="成交额：" style="text;html=1;strokeColor=none;fillColor=none;align=left;verticalAlign=middle;whiteSpace=wrap;rounded=0;fontColor=#000000;" vertex="1" parent="gjld3cbzGbYmKHsjepiV-157">
          <mxGeometry x="119" y="540" width="80" height="30" as="geometry" />
        </mxCell>
        <mxCell id="gjld3cbzGbYmKHsjepiV-166" value="市值：" style="text;html=1;strokeColor=none;fillColor=none;align=left;verticalAlign=middle;whiteSpace=wrap;rounded=0;fontColor=#000000;" vertex="1" parent="gjld3cbzGbYmKHsjepiV-157">
          <mxGeometry x="119" y="570" width="80" height="30" as="geometry" />
        </mxCell>
        <mxCell id="gjld3cbzGbYmKHsjepiV-167" value="铸造者（发行人）：" style="text;html=1;strokeColor=none;fillColor=none;align=left;verticalAlign=middle;whiteSpace=wrap;rounded=0;fontColor=#000000;" vertex="1" parent="gjld3cbzGbYmKHsjepiV-157">
          <mxGeometry x="119" y="600" width="110" height="30" as="geometry" />
        </mxCell>
        <mxCell id="gjld3cbzGbYmKHsjepiV-168" value="提交" style="rounded=1;whiteSpace=wrap;html=1;fillColor=#dae8fc;strokeColor=#6c8ebf;" vertex="1" parent="gjld3cbzGbYmKHsjepiV-157">
          <mxGeometry x="304" y="670" width="120" height="40" as="geometry" />
        </mxCell>
        <mxCell id="gjld3cbzGbYmKHsjepiV-169" value="交易（ 卖）" style="swimlane;fontColor=#000000;" vertex="1" parent="1">
          <mxGeometry x="2115" y="4900" width="760" height="1190" as="geometry" />
        </mxCell>
        <mxCell id="gjld3cbzGbYmKHsjepiV-170" value="拥有的NFT" style="rounded=1;whiteSpace=wrap;html=1;fillColor=#dae8fc;strokeColor=#6c8ebf;" vertex="1" parent="gjld3cbzGbYmKHsjepiV-169">
          <mxGeometry x="32.5" y="145.75" width="115" height="45" as="geometry" />
        </mxCell>
        <mxCell id="gjld3cbzGbYmKHsjepiV-171" value="" style="rounded=0;whiteSpace=wrap;html=1;fillColor=#dae8fc;strokeColor=#6c8ebf;" vertex="1" parent="gjld3cbzGbYmKHsjepiV-169">
          <mxGeometry x="217.5" y="140" width="190" height="271" as="geometry" />
        </mxCell>
        <mxCell id="gjld3cbzGbYmKHsjepiV-172" value="1" style="rounded=1;whiteSpace=wrap;html=1;fontColor=#000000;" vertex="1" parent="gjld3cbzGbYmKHsjepiV-169">
          <mxGeometry x="267.5" y="185" width="120" height="60" as="geometry" />
        </mxCell>
        <mxCell id="gjld3cbzGbYmKHsjepiV-173" value="2" style="rounded=1;whiteSpace=wrap;html=1;fontColor=#000000;" vertex="1" parent="gjld3cbzGbYmKHsjepiV-169">
          <mxGeometry x="267.5" y="253.5" width="120" height="60" as="geometry" />
        </mxCell>
        <mxCell id="gjld3cbzGbYmKHsjepiV-174" value="3" style="rounded=1;whiteSpace=wrap;html=1;fontColor=#000000;" vertex="1" parent="gjld3cbzGbYmKHsjepiV-169">
          <mxGeometry x="267.5" y="333.5" width="120" height="60" as="geometry" />
        </mxCell>
        <mxCell id="gjld3cbzGbYmKHsjepiV-175" value="搜索TokenID" style="rounded=1;whiteSpace=wrap;html=1;fillColor=#dae8fc;strokeColor=#6c8ebf;" vertex="1" parent="gjld3cbzGbYmKHsjepiV-169">
          <mxGeometry x="270" y="145.75" width="115" height="33.5" as="geometry" />
        </mxCell>
        <mxCell id="gjld3cbzGbYmKHsjepiV-176" value="✔" style="rounded=1;whiteSpace=wrap;html=1;fillColor=#dae8fc;strokeColor=#6c8ebf;" vertex="1" parent="gjld3cbzGbYmKHsjepiV-169">
          <mxGeometry x="232.5" y="148.63" width="30" height="27.75" as="geometry" />
        </mxCell>
        <mxCell id="gjld3cbzGbYmKHsjepiV-177" value="✔" style="rounded=1;whiteSpace=wrap;html=1;fillColor=#dae8fc;strokeColor=#6c8ebf;" vertex="1" parent="gjld3cbzGbYmKHsjepiV-169">
          <mxGeometry x="232.5" y="201.12" width="25" height="22.38" as="geometry" />
        </mxCell>
        <mxCell id="gjld3cbzGbYmKHsjepiV-178" value="✔" style="rounded=1;whiteSpace=wrap;html=1;fillColor=#dae8fc;strokeColor=#6c8ebf;" vertex="1" parent="gjld3cbzGbYmKHsjepiV-169">
          <mxGeometry x="232.5" y="272.30999999999995" width="25" height="22.38" as="geometry" />
        </mxCell>
        <mxCell id="gjld3cbzGbYmKHsjepiV-179" value="✔" style="rounded=1;whiteSpace=wrap;html=1;fillColor=#dae8fc;strokeColor=#6c8ebf;" vertex="1" parent="gjld3cbzGbYmKHsjepiV-169">
          <mxGeometry x="232.5" y="352.30999999999995" width="25" height="22.38" as="geometry" />
        </mxCell>
        <mxCell id="gjld3cbzGbYmKHsjepiV-180" value="" style="shape=singleArrow;whiteSpace=wrap;html=1;fontColor=#000000;" vertex="1" parent="gjld3cbzGbYmKHsjepiV-169">
          <mxGeometry x="162.5" y="141.1199999999999" width="50" height="60" as="geometry" />
        </mxCell>
        <mxCell id="gjld3cbzGbYmKHsjepiV-181" value="卖价：" style="text;html=1;strokeColor=none;fillColor=none;align=left;verticalAlign=middle;whiteSpace=wrap;rounded=0;fontColor=#000000;" vertex="1" parent="gjld3cbzGbYmKHsjepiV-169">
          <mxGeometry x="32.5" y="443.5" width="105" height="30" as="geometry" />
        </mxCell>
        <mxCell id="gjld3cbzGbYmKHsjepiV-182" value="提交卖单" style="rounded=1;whiteSpace=wrap;html=1;fillColor=#dae8fc;strokeColor=#6c8ebf;" vertex="1" parent="gjld3cbzGbYmKHsjepiV-169">
          <mxGeometry x="422.5" y="438.5" width="120" height="40" as="geometry" />
        </mxCell>
        <mxCell id="gjld3cbzGbYmKHsjepiV-183" value="买卖深度图" style="rounded=0;whiteSpace=wrap;html=1;fillColor=#dae8fc;strokeColor=#6c8ebf;" vertex="1" parent="gjld3cbzGbYmKHsjepiV-169">
          <mxGeometry x="422.5" y="145.5" width="275" height="260" as="geometry" />
        </mxCell>
        <mxCell id="gjld3cbzGbYmKHsjepiV-184" value="7日/30日/1年均价蜡烛图" style="rounded=0;whiteSpace=wrap;html=1;fillColor=#dae8fc;strokeColor=#6c8ebf;" vertex="1" parent="gjld3cbzGbYmKHsjepiV-169">
          <mxGeometry x="120" y="560" width="490" height="240" as="geometry" />
        </mxCell>
        <mxCell id="gjld3cbzGbYmKHsjepiV-185" value="搜索" style="rounded=1;whiteSpace=wrap;html=1;fillColor=#dae8fc;strokeColor=#6c8ebf;" vertex="1" parent="gjld3cbzGbYmKHsjepiV-169">
          <mxGeometry x="130" y="920" width="500" height="45" as="geometry" />
        </mxCell>
        <mxCell id="gjld3cbzGbYmKHsjepiV-186" value="Event&lt;span style=&quot;white-space: pre;&quot;&gt;	&lt;span style=&quot;white-space: pre;&quot;&gt;	&lt;/span&gt;&lt;/span&gt;&lt;span style=&quot;white-space: pre;&quot;&gt;	&lt;/span&gt;Price&lt;span style=&quot;white-space: pre;&quot;&gt;	&lt;span style=&quot;white-space: pre;&quot;&gt;	&lt;/span&gt;&lt;/span&gt;&lt;span style=&quot;white-space: pre;&quot;&gt;	&lt;/span&gt;From&lt;span style=&quot;white-space: pre;&quot;&gt;	&lt;span style=&quot;white-space: pre;&quot;&gt;	&lt;/span&gt;&lt;/span&gt;&lt;span style=&quot;white-space: pre;&quot;&gt;	&lt;/span&gt;To&lt;span style=&quot;white-space: pre;&quot;&gt;	&lt;/span&gt;&lt;span style=&quot;white-space: pre;&quot;&gt;	&lt;span style=&quot;white-space: pre;&quot;&gt;	&lt;/span&gt;&lt;/span&gt;Date" style="text;html=1;strokeColor=none;fillColor=none;align=center;verticalAlign=middle;whiteSpace=wrap;rounded=0;fontColor=#000000;" vertex="1" parent="gjld3cbzGbYmKHsjepiV-169">
          <mxGeometry x="80" y="1000" width="550" height="40" as="geometry" />
        </mxCell>
        <mxCell id="gjld3cbzGbYmKHsjepiV-187" value="Sale" style="text;html=1;align=center;verticalAlign=middle;resizable=0;points=[];autosize=1;strokeColor=none;fillColor=none;fontColor=#000000;" vertex="1" parent="gjld3cbzGbYmKHsjepiV-169">
          <mxGeometry x="135" y="1035" width="50" height="30" as="geometry" />
        </mxCell>
        <mxCell id="gjld3cbzGbYmKHsjepiV-188" value="1100.0" style="text;html=1;align=center;verticalAlign=middle;resizable=0;points=[];autosize=1;strokeColor=none;fillColor=none;fontColor=#000000;" vertex="1" parent="gjld3cbzGbYmKHsjepiV-169">
          <mxGeometry x="235" y="1035" width="60" height="30" as="geometry" />
        </mxCell>
        <mxCell id="gjld3cbzGbYmKHsjepiV-189" value="xxx" style="text;html=1;align=center;verticalAlign=middle;resizable=0;points=[];autosize=1;strokeColor=none;fillColor=none;fontColor=#000000;" vertex="1" parent="gjld3cbzGbYmKHsjepiV-169">
          <mxGeometry x="350" y="1035" width="40" height="30" as="geometry" />
        </mxCell>
        <mxCell id="gjld3cbzGbYmKHsjepiV-190" value="xxx" style="text;html=1;align=center;verticalAlign=middle;resizable=0;points=[];autosize=1;strokeColor=none;fillColor=none;fontColor=#000000;" vertex="1" parent="gjld3cbzGbYmKHsjepiV-169">
          <mxGeometry x="450" y="1035" width="40" height="30" as="geometry" />
        </mxCell>
        <mxCell id="gjld3cbzGbYmKHsjepiV-191" value="Sale" style="text;html=1;align=center;verticalAlign=middle;resizable=0;points=[];autosize=1;strokeColor=none;fillColor=none;fontColor=#000000;" vertex="1" parent="gjld3cbzGbYmKHsjepiV-169">
          <mxGeometry x="135" y="1065" width="50" height="30" as="geometry" />
        </mxCell>
        <mxCell id="gjld3cbzGbYmKHsjepiV-192" value="5000.0" style="text;html=1;align=center;verticalAlign=middle;resizable=0;points=[];autosize=1;strokeColor=none;fillColor=none;fontColor=#000000;" vertex="1" parent="gjld3cbzGbYmKHsjepiV-169">
          <mxGeometry x="235" y="1065" width="60" height="30" as="geometry" />
        </mxCell>
        <mxCell id="gjld3cbzGbYmKHsjepiV-193" value="xxx" style="text;html=1;align=center;verticalAlign=middle;resizable=0;points=[];autosize=1;strokeColor=none;fillColor=none;fontColor=#000000;" vertex="1" parent="gjld3cbzGbYmKHsjepiV-169">
          <mxGeometry x="350" y="1065" width="40" height="30" as="geometry" />
        </mxCell>
        <mxCell id="gjld3cbzGbYmKHsjepiV-194" value="xxx" style="text;html=1;align=center;verticalAlign=middle;resizable=0;points=[];autosize=1;strokeColor=none;fillColor=none;fontColor=#000000;" vertex="1" parent="gjld3cbzGbYmKHsjepiV-169">
          <mxGeometry x="450" y="1065" width="40" height="30" as="geometry" />
        </mxCell>
        <mxCell id="gjld3cbzGbYmKHsjepiV-195" value="买" style="text;html=1;strokeColor=#6c8ebf;fillColor=#dae8fc;align=center;verticalAlign=middle;whiteSpace=wrap;rounded=0;" vertex="1" parent="gjld3cbzGbYmKHsjepiV-169">
          <mxGeometry x="17.5" y="40" width="60" height="30" as="geometry" />
        </mxCell>
        <mxCell id="gjld3cbzGbYmKHsjepiV-196" value="卖" style="text;html=1;strokeColor=#6c8ebf;fillColor=#dae8fc;align=center;verticalAlign=middle;whiteSpace=wrap;rounded=0;" vertex="1" parent="gjld3cbzGbYmKHsjepiV-169">
          <mxGeometry x="87.5" y="65" width="60" height="30" as="geometry" />
        </mxCell>
        <mxCell id="gjld3cbzGbYmKHsjepiV-197" value="" style="endArrow=none;html=1;rounded=0;fontColor=#000000;" edge="1" parent="gjld3cbzGbYmKHsjepiV-169">
          <mxGeometry width="50" height="50" relative="1" as="geometry">
            <mxPoint x="67.5" y="100" as="sourcePoint" />
            <mxPoint x="97.5" y="40" as="targetPoint" />
          </mxGeometry>
        </mxCell>
        <mxCell id="gjld3cbzGbYmKHsjepiV-198" value="首发" style="swimlane;fontColor=#000000;startSize=23;" vertex="1" parent="1">
          <mxGeometry x="1980" y="8020" width="1000" height="1180" as="geometry" />
        </mxCell>
        <mxCell id="gjld3cbzGbYmKHsjepiV-199" value="" style="rounded=0;whiteSpace=wrap;html=1;fontColor=#000000;" vertex="1" parent="gjld3cbzGbYmKHsjepiV-198">
          <mxGeometry x="25" y="170" width="300" height="530" as="geometry" />
        </mxCell>
        <mxCell id="gjld3cbzGbYmKHsjepiV-200" value="缩略图" style="rounded=0;whiteSpace=wrap;html=1;fillColor=#dae8fc;strokeColor=#6c8ebf;" vertex="1" parent="gjld3cbzGbYmKHsjepiV-198">
          <mxGeometry x="45" y="180" width="260" height="160" as="geometry" />
        </mxCell>
        <mxCell id="gjld3cbzGbYmKHsjepiV-201" value="名称：xx" style="text;html=1;strokeColor=none;fillColor=none;align=left;verticalAlign=middle;whiteSpace=wrap;rounded=0;fontColor=#000000;" vertex="1" parent="gjld3cbzGbYmKHsjepiV-198">
          <mxGeometry x="45" y="360" width="60" height="30" as="geometry" />
        </mxCell>
        <mxCell id="gjld3cbzGbYmKHsjepiV-202" value="&lt;span style=&quot;&quot;&gt;卖单价：&lt;/span&gt;" style="text;html=1;strokeColor=none;fillColor=none;align=left;verticalAlign=middle;whiteSpace=wrap;rounded=0;fontColor=#000000;" vertex="1" parent="gjld3cbzGbYmKHsjepiV-198">
          <mxGeometry x="45" y="450" width="60" height="30" as="geometry" />
        </mxCell>
        <mxCell id="gjld3cbzGbYmKHsjepiV-203" value="&lt;span style=&quot;&quot;&gt;地板价：&lt;/span&gt;" style="text;html=1;strokeColor=none;fillColor=none;align=left;verticalAlign=middle;whiteSpace=wrap;rounded=0;fontColor=#000000;" vertex="1" parent="gjld3cbzGbYmKHsjepiV-198">
          <mxGeometry x="45" y="420" width="60" height="30" as="geometry" />
        </mxCell>
        <mxCell id="gjld3cbzGbYmKHsjepiV-204" value="&lt;span style=&quot;&quot;&gt;最高买单价：&lt;/span&gt;" style="text;html=1;strokeColor=none;fillColor=none;align=left;verticalAlign=middle;whiteSpace=wrap;rounded=0;fontColor=#000000;" vertex="1" parent="gjld3cbzGbYmKHsjepiV-198">
          <mxGeometry x="45" y="480" width="80" height="30" as="geometry" />
        </mxCell>
        <mxCell id="gjld3cbzGbYmKHsjepiV-205" value="&lt;span style=&quot;&quot;&gt;介绍：&lt;/span&gt;" style="text;html=1;strokeColor=none;fillColor=none;align=left;verticalAlign=middle;whiteSpace=wrap;rounded=0;fontColor=#000000;" vertex="1" parent="gjld3cbzGbYmKHsjepiV-198">
          <mxGeometry x="45" y="390" width="80" height="30" as="geometry" />
        </mxCell>
        <mxCell id="gjld3cbzGbYmKHsjepiV-206" value="买单深度" style="text;html=1;strokeColor=none;fillColor=none;align=left;verticalAlign=middle;whiteSpace=wrap;rounded=0;fontColor=#000000;" vertex="1" parent="gjld3cbzGbYmKHsjepiV-198">
          <mxGeometry x="45" y="510" width="80" height="30" as="geometry" />
        </mxCell>
        <mxCell id="gjld3cbzGbYmKHsjepiV-207" value="成交额：" style="text;html=1;strokeColor=none;fillColor=none;align=left;verticalAlign=middle;whiteSpace=wrap;rounded=0;fontColor=#000000;" vertex="1" parent="gjld3cbzGbYmKHsjepiV-198">
          <mxGeometry x="45" y="540" width="80" height="30" as="geometry" />
        </mxCell>
        <mxCell id="gjld3cbzGbYmKHsjepiV-208" value="市值：" style="text;html=1;strokeColor=none;fillColor=none;align=left;verticalAlign=middle;whiteSpace=wrap;rounded=0;fontColor=#000000;" vertex="1" parent="gjld3cbzGbYmKHsjepiV-198">
          <mxGeometry x="45" y="570" width="80" height="30" as="geometry" />
        </mxCell>
        <mxCell id="gjld3cbzGbYmKHsjepiV-209" value="" style="rounded=0;whiteSpace=wrap;html=1;fontColor=#000000;" vertex="1" parent="gjld3cbzGbYmKHsjepiV-198">
          <mxGeometry x="355" y="170" width="300" height="530" as="geometry" />
        </mxCell>
        <mxCell id="gjld3cbzGbYmKHsjepiV-210" value="缩略图" style="rounded=0;whiteSpace=wrap;html=1;fillColor=#dae8fc;strokeColor=#6c8ebf;" vertex="1" parent="gjld3cbzGbYmKHsjepiV-198">
          <mxGeometry x="375" y="180" width="260" height="160" as="geometry" />
        </mxCell>
        <mxCell id="gjld3cbzGbYmKHsjepiV-211" value="名称：xx" style="text;html=1;strokeColor=none;fillColor=none;align=left;verticalAlign=middle;whiteSpace=wrap;rounded=0;fontColor=#000000;" vertex="1" parent="gjld3cbzGbYmKHsjepiV-198">
          <mxGeometry x="375" y="360" width="60" height="30" as="geometry" />
        </mxCell>
        <mxCell id="gjld3cbzGbYmKHsjepiV-212" value="&lt;span style=&quot;&quot;&gt;卖单价：&lt;/span&gt;" style="text;html=1;strokeColor=none;fillColor=none;align=left;verticalAlign=middle;whiteSpace=wrap;rounded=0;fontColor=#000000;" vertex="1" parent="gjld3cbzGbYmKHsjepiV-198">
          <mxGeometry x="375" y="450" width="60" height="30" as="geometry" />
        </mxCell>
        <mxCell id="gjld3cbzGbYmKHsjepiV-213" value="&lt;span style=&quot;&quot;&gt;地板价：&lt;/span&gt;" style="text;html=1;strokeColor=none;fillColor=none;align=left;verticalAlign=middle;whiteSpace=wrap;rounded=0;fontColor=#000000;" vertex="1" parent="gjld3cbzGbYmKHsjepiV-198">
          <mxGeometry x="375" y="420" width="60" height="30" as="geometry" />
        </mxCell>
        <mxCell id="gjld3cbzGbYmKHsjepiV-214" value="&lt;span style=&quot;&quot;&gt;最高买单价：&lt;/span&gt;" style="text;html=1;strokeColor=none;fillColor=none;align=left;verticalAlign=middle;whiteSpace=wrap;rounded=0;fontColor=#000000;" vertex="1" parent="gjld3cbzGbYmKHsjepiV-198">
          <mxGeometry x="375" y="480" width="80" height="30" as="geometry" />
        </mxCell>
        <mxCell id="gjld3cbzGbYmKHsjepiV-215" value="&lt;span style=&quot;&quot;&gt;介绍：&lt;/span&gt;" style="text;html=1;strokeColor=none;fillColor=none;align=left;verticalAlign=middle;whiteSpace=wrap;rounded=0;fontColor=#000000;" vertex="1" parent="gjld3cbzGbYmKHsjepiV-198">
          <mxGeometry x="375" y="390" width="80" height="30" as="geometry" />
        </mxCell>
        <mxCell id="gjld3cbzGbYmKHsjepiV-216" value="买单深度" style="text;html=1;strokeColor=none;fillColor=none;align=left;verticalAlign=middle;whiteSpace=wrap;rounded=0;fontColor=#000000;" vertex="1" parent="gjld3cbzGbYmKHsjepiV-198">
          <mxGeometry x="375" y="510" width="80" height="30" as="geometry" />
        </mxCell>
        <mxCell id="gjld3cbzGbYmKHsjepiV-217" value="成交额：" style="text;html=1;strokeColor=none;fillColor=none;align=left;verticalAlign=middle;whiteSpace=wrap;rounded=0;fontColor=#000000;" vertex="1" parent="gjld3cbzGbYmKHsjepiV-198">
          <mxGeometry x="375" y="540" width="80" height="30" as="geometry" />
        </mxCell>
        <mxCell id="gjld3cbzGbYmKHsjepiV-218" value="市值：" style="text;html=1;strokeColor=none;fillColor=none;align=left;verticalAlign=middle;whiteSpace=wrap;rounded=0;fontColor=#000000;" vertex="1" parent="gjld3cbzGbYmKHsjepiV-198">
          <mxGeometry x="375" y="570" width="80" height="30" as="geometry" />
        </mxCell>
        <mxCell id="gjld3cbzGbYmKHsjepiV-219" value="" style="rounded=0;whiteSpace=wrap;html=1;fontColor=#000000;" vertex="1" parent="gjld3cbzGbYmKHsjepiV-198">
          <mxGeometry x="675" y="170" width="300" height="530" as="geometry" />
        </mxCell>
        <mxCell id="gjld3cbzGbYmKHsjepiV-220" value="缩略图" style="rounded=0;whiteSpace=wrap;html=1;fillColor=#dae8fc;strokeColor=#6c8ebf;" vertex="1" parent="gjld3cbzGbYmKHsjepiV-198">
          <mxGeometry x="695" y="180" width="260" height="160" as="geometry" />
        </mxCell>
        <mxCell id="gjld3cbzGbYmKHsjepiV-221" value="名称：xx" style="text;html=1;strokeColor=none;fillColor=none;align=left;verticalAlign=middle;whiteSpace=wrap;rounded=0;fontColor=#000000;" vertex="1" parent="gjld3cbzGbYmKHsjepiV-198">
          <mxGeometry x="695" y="360" width="60" height="30" as="geometry" />
        </mxCell>
        <mxCell id="gjld3cbzGbYmKHsjepiV-222" value="&lt;span style=&quot;&quot;&gt;卖单价：&lt;/span&gt;" style="text;html=1;strokeColor=none;fillColor=none;align=left;verticalAlign=middle;whiteSpace=wrap;rounded=0;fontColor=#000000;" vertex="1" parent="gjld3cbzGbYmKHsjepiV-198">
          <mxGeometry x="695" y="450" width="60" height="30" as="geometry" />
        </mxCell>
        <mxCell id="gjld3cbzGbYmKHsjepiV-223" value="&lt;span style=&quot;&quot;&gt;地板价：&lt;/span&gt;" style="text;html=1;strokeColor=none;fillColor=none;align=left;verticalAlign=middle;whiteSpace=wrap;rounded=0;fontColor=#000000;" vertex="1" parent="gjld3cbzGbYmKHsjepiV-198">
          <mxGeometry x="695" y="420" width="60" height="30" as="geometry" />
        </mxCell>
        <mxCell id="gjld3cbzGbYmKHsjepiV-224" value="&lt;span style=&quot;&quot;&gt;最高买单价：&lt;/span&gt;" style="text;html=1;strokeColor=none;fillColor=none;align=left;verticalAlign=middle;whiteSpace=wrap;rounded=0;fontColor=#000000;" vertex="1" parent="gjld3cbzGbYmKHsjepiV-198">
          <mxGeometry x="695" y="480" width="80" height="30" as="geometry" />
        </mxCell>
        <mxCell id="gjld3cbzGbYmKHsjepiV-225" value="&lt;span style=&quot;&quot;&gt;介绍：&lt;/span&gt;" style="text;html=1;strokeColor=none;fillColor=none;align=left;verticalAlign=middle;whiteSpace=wrap;rounded=0;fontColor=#000000;" vertex="1" parent="gjld3cbzGbYmKHsjepiV-198">
          <mxGeometry x="695" y="390" width="80" height="30" as="geometry" />
        </mxCell>
        <mxCell id="gjld3cbzGbYmKHsjepiV-226" value="买单深度" style="text;html=1;strokeColor=none;fillColor=none;align=left;verticalAlign=middle;whiteSpace=wrap;rounded=0;fontColor=#000000;" vertex="1" parent="gjld3cbzGbYmKHsjepiV-198">
          <mxGeometry x="695" y="510" width="80" height="30" as="geometry" />
        </mxCell>
        <mxCell id="gjld3cbzGbYmKHsjepiV-227" value="成交额：" style="text;html=1;strokeColor=none;fillColor=none;align=left;verticalAlign=middle;whiteSpace=wrap;rounded=0;fontColor=#000000;" vertex="1" parent="gjld3cbzGbYmKHsjepiV-198">
          <mxGeometry x="695" y="540" width="80" height="30" as="geometry" />
        </mxCell>
        <mxCell id="gjld3cbzGbYmKHsjepiV-228" value="市值：" style="text;html=1;strokeColor=none;fillColor=none;align=left;verticalAlign=middle;whiteSpace=wrap;rounded=0;fontColor=#000000;" vertex="1" parent="gjld3cbzGbYmKHsjepiV-198">
          <mxGeometry x="695" y="570" width="80" height="30" as="geometry" />
        </mxCell>
        <mxCell id="gjld3cbzGbYmKHsjepiV-229" value="铸造者（发行人）：" style="text;html=1;strokeColor=none;fillColor=none;align=left;verticalAlign=middle;whiteSpace=wrap;rounded=0;fontColor=#000000;" vertex="1" parent="gjld3cbzGbYmKHsjepiV-198">
          <mxGeometry x="695" y="600" width="110" height="30" as="geometry" />
        </mxCell>
        <mxCell id="gjld3cbzGbYmKHsjepiV-230" value="铸造者（发行人）：" style="text;html=1;strokeColor=none;fillColor=none;align=left;verticalAlign=middle;whiteSpace=wrap;rounded=0;fontColor=#000000;" vertex="1" parent="gjld3cbzGbYmKHsjepiV-198">
          <mxGeometry x="375" y="600" width="110" height="30" as="geometry" />
        </mxCell>
        <mxCell id="gjld3cbzGbYmKHsjepiV-231" value="铸造者（发行人）：" style="text;html=1;strokeColor=none;fillColor=none;align=left;verticalAlign=middle;whiteSpace=wrap;rounded=0;fontColor=#000000;" vertex="1" parent="gjld3cbzGbYmKHsjepiV-198">
          <mxGeometry x="45" y="600" width="110" height="30" as="geometry" />
        </mxCell>
        <mxCell id="gjld3cbzGbYmKHsjepiV-232" value="进行中" style="shape=parallelogram;perimeter=parallelogramPerimeter;whiteSpace=wrap;html=1;fixedSize=1;fillColor=#dae8fc;strokeColor=#6c8ebf;" vertex="1" parent="gjld3cbzGbYmKHsjepiV-198">
          <mxGeometry x="131" y="70" width="258" height="60" as="geometry" />
        </mxCell>
        <mxCell id="gjld3cbzGbYmKHsjepiV-233" value="已结束" style="shape=parallelogram;perimeter=parallelogramPerimeter;whiteSpace=wrap;html=1;fixedSize=1;fillColor=#dae8fc;strokeColor=#6c8ebf;" vertex="1" parent="gjld3cbzGbYmKHsjepiV-198">
          <mxGeometry x="369" y="70" width="258" height="60" as="geometry" />
        </mxCell>
        <mxCell id="gjld3cbzGbYmKHsjepiV-234" value="待开始" style="shape=parallelogram;perimeter=parallelogramPerimeter;whiteSpace=wrap;html=1;fixedSize=1;fillColor=#dae8fc;strokeColor=#6c8ebf;" vertex="1" parent="gjld3cbzGbYmKHsjepiV-198">
          <mxGeometry x="606" y="70" width="258" height="60" as="geometry" />
        </mxCell>
        <mxCell id="gjld3cbzGbYmKHsjepiV-235" value="空投（认领）" style="swimlane;fontColor=#000000;startSize=23;" vertex="1" parent="1">
          <mxGeometry x="1995" y="9500" width="1000" height="1180" as="geometry" />
        </mxCell>
        <mxCell id="gjld3cbzGbYmKHsjepiV-236" value="" style="rounded=0;whiteSpace=wrap;html=1;fontColor=#000000;" vertex="1" parent="gjld3cbzGbYmKHsjepiV-235">
          <mxGeometry x="25" y="170" width="300" height="440" as="geometry" />
        </mxCell>
        <mxCell id="gjld3cbzGbYmKHsjepiV-237" value="缩略图" style="rounded=0;whiteSpace=wrap;html=1;fillColor=#dae8fc;strokeColor=#6c8ebf;" vertex="1" parent="gjld3cbzGbYmKHsjepiV-235">
          <mxGeometry x="45" y="180" width="260" height="160" as="geometry" />
        </mxCell>
        <mxCell id="gjld3cbzGbYmKHsjepiV-238" value="名称：xx" style="text;html=1;strokeColor=none;fillColor=none;align=left;verticalAlign=middle;whiteSpace=wrap;rounded=0;fontColor=#000000;" vertex="1" parent="gjld3cbzGbYmKHsjepiV-235">
          <mxGeometry x="45" y="360" width="60" height="30" as="geometry" />
        </mxCell>
        <mxCell id="gjld3cbzGbYmKHsjepiV-239" value="&lt;span style=&quot;&quot;&gt;介绍：&lt;/span&gt;" style="text;html=1;strokeColor=none;fillColor=none;align=left;verticalAlign=middle;whiteSpace=wrap;rounded=0;fontColor=#000000;" vertex="1" parent="gjld3cbzGbYmKHsjepiV-235">
          <mxGeometry x="45" y="390" width="80" height="30" as="geometry" />
        </mxCell>
        <mxCell id="gjld3cbzGbYmKHsjepiV-240" value="进行中" style="shape=parallelogram;perimeter=parallelogramPerimeter;whiteSpace=wrap;html=1;fixedSize=1;fillColor=#dae8fc;strokeColor=#6c8ebf;" vertex="1" parent="gjld3cbzGbYmKHsjepiV-235">
          <mxGeometry x="131" y="70" width="258" height="60" as="geometry" />
        </mxCell>
        <mxCell id="gjld3cbzGbYmKHsjepiV-241" value="已结束" style="shape=parallelogram;perimeter=parallelogramPerimeter;whiteSpace=wrap;html=1;fixedSize=1;fillColor=#dae8fc;strokeColor=#6c8ebf;" vertex="1" parent="gjld3cbzGbYmKHsjepiV-235">
          <mxGeometry x="369" y="70" width="258" height="60" as="geometry" />
        </mxCell>
        <mxCell id="gjld3cbzGbYmKHsjepiV-242" value="待开始" style="shape=parallelogram;perimeter=parallelogramPerimeter;whiteSpace=wrap;html=1;fixedSize=1;fillColor=#dae8fc;strokeColor=#6c8ebf;" vertex="1" parent="gjld3cbzGbYmKHsjepiV-235">
          <mxGeometry x="606" y="70" width="258" height="60" as="geometry" />
        </mxCell>
        <mxCell id="gjld3cbzGbYmKHsjepiV-243" value="&lt;span style=&quot;&quot;&gt;认领条件：&lt;/span&gt;" style="text;html=1;strokeColor=none;fillColor=none;align=left;verticalAlign=middle;whiteSpace=wrap;rounded=0;fontColor=#000000;" vertex="1" parent="gjld3cbzGbYmKHsjepiV-235">
          <mxGeometry x="45" y="420" width="80" height="30" as="geometry" />
        </mxCell>
        <mxCell id="gjld3cbzGbYmKHsjepiV-244" value="认领" style="rounded=1;whiteSpace=wrap;html=1;fillColor=#dae8fc;strokeColor=#6c8ebf;" vertex="1" parent="gjld3cbzGbYmKHsjepiV-235">
          <mxGeometry x="125" y="520" width="120" height="40" as="geometry" />
        </mxCell>
        <mxCell id="gjld3cbzGbYmKHsjepiV-245" value="" style="rounded=0;whiteSpace=wrap;html=1;fontColor=#000000;" vertex="1" parent="gjld3cbzGbYmKHsjepiV-235">
          <mxGeometry x="348" y="170" width="300" height="440" as="geometry" />
        </mxCell>
        <mxCell id="gjld3cbzGbYmKHsjepiV-246" value="缩略图" style="rounded=0;whiteSpace=wrap;html=1;fillColor=#dae8fc;strokeColor=#6c8ebf;" vertex="1" parent="gjld3cbzGbYmKHsjepiV-235">
          <mxGeometry x="368" y="180" width="260" height="160" as="geometry" />
        </mxCell>
        <mxCell id="gjld3cbzGbYmKHsjepiV-247" value="名称：xx" style="text;html=1;strokeColor=none;fillColor=none;align=left;verticalAlign=middle;whiteSpace=wrap;rounded=0;fontColor=#000000;" vertex="1" parent="gjld3cbzGbYmKHsjepiV-235">
          <mxGeometry x="368" y="360" width="60" height="30" as="geometry" />
        </mxCell>
        <mxCell id="gjld3cbzGbYmKHsjepiV-248" value="&lt;span style=&quot;&quot;&gt;介绍：&lt;/span&gt;" style="text;html=1;strokeColor=none;fillColor=none;align=left;verticalAlign=middle;whiteSpace=wrap;rounded=0;fontColor=#000000;" vertex="1" parent="gjld3cbzGbYmKHsjepiV-235">
          <mxGeometry x="368" y="390" width="80" height="30" as="geometry" />
        </mxCell>
        <mxCell id="gjld3cbzGbYmKHsjepiV-249" value="&lt;span style=&quot;&quot;&gt;认领条件：&lt;/span&gt;" style="text;html=1;strokeColor=none;fillColor=none;align=left;verticalAlign=middle;whiteSpace=wrap;rounded=0;fontColor=#000000;" vertex="1" parent="gjld3cbzGbYmKHsjepiV-235">
          <mxGeometry x="368" y="420" width="80" height="30" as="geometry" />
        </mxCell>
        <mxCell id="gjld3cbzGbYmKHsjepiV-250" value="认领" style="rounded=1;whiteSpace=wrap;html=1;fillColor=#dae8fc;strokeColor=#6c8ebf;" vertex="1" parent="gjld3cbzGbYmKHsjepiV-235">
          <mxGeometry x="448" y="520" width="120" height="40" as="geometry" />
        </mxCell>
        <mxCell id="gjld3cbzGbYmKHsjepiV-251" value="" style="rounded=0;whiteSpace=wrap;html=1;fontColor=#000000;" vertex="1" parent="gjld3cbzGbYmKHsjepiV-235">
          <mxGeometry x="674" y="170" width="300" height="440" as="geometry" />
        </mxCell>
        <mxCell id="gjld3cbzGbYmKHsjepiV-252" value="缩略图" style="rounded=0;whiteSpace=wrap;html=1;fillColor=#dae8fc;strokeColor=#6c8ebf;" vertex="1" parent="gjld3cbzGbYmKHsjepiV-235">
          <mxGeometry x="694" y="180" width="260" height="160" as="geometry" />
        </mxCell>
        <mxCell id="gjld3cbzGbYmKHsjepiV-253" value="名称：xx" style="text;html=1;strokeColor=none;fillColor=none;align=left;verticalAlign=middle;whiteSpace=wrap;rounded=0;fontColor=#000000;" vertex="1" parent="gjld3cbzGbYmKHsjepiV-235">
          <mxGeometry x="694" y="360" width="60" height="30" as="geometry" />
        </mxCell>
        <mxCell id="gjld3cbzGbYmKHsjepiV-254" value="&lt;span style=&quot;&quot;&gt;介绍：&lt;/span&gt;" style="text;html=1;strokeColor=none;fillColor=none;align=left;verticalAlign=middle;whiteSpace=wrap;rounded=0;fontColor=#000000;" vertex="1" parent="gjld3cbzGbYmKHsjepiV-235">
          <mxGeometry x="694" y="390" width="80" height="30" as="geometry" />
        </mxCell>
        <mxCell id="gjld3cbzGbYmKHsjepiV-255" value="&lt;span style=&quot;&quot;&gt;认领条件：&lt;/span&gt;" style="text;html=1;strokeColor=none;fillColor=none;align=left;verticalAlign=middle;whiteSpace=wrap;rounded=0;fontColor=#000000;" vertex="1" parent="gjld3cbzGbYmKHsjepiV-235">
          <mxGeometry x="694" y="420" width="80" height="30" as="geometry" />
        </mxCell>
        <mxCell id="gjld3cbzGbYmKHsjepiV-256" value="认领" style="rounded=1;whiteSpace=wrap;html=1;fillColor=#dae8fc;strokeColor=#6c8ebf;" vertex="1" parent="gjld3cbzGbYmKHsjepiV-235">
          <mxGeometry x="774" y="520" width="120" height="40" as="geometry" />
        </mxCell>
        <mxCell id="gjld3cbzGbYmKHsjepiV-257" value="后台" style="swimlane;fontColor=#000000;" vertex="1" parent="1">
          <mxGeometry x="2135" y="15470" width="760" height="1180" as="geometry" />
        </mxCell>
        <mxCell id="gjld3cbzGbYmKHsjepiV-258" value="合约模板设置" style="rounded=1;whiteSpace=wrap;html=1;fillColor=#dae8fc;strokeColor=#6c8ebf;" vertex="1" parent="gjld3cbzGbYmKHsjepiV-257">
          <mxGeometry x="70" y="120" width="120" height="60" as="geometry" />
        </mxCell>
        <mxCell id="gjld3cbzGbYmKHsjepiV-259" value="Banner设置" style="rounded=1;whiteSpace=wrap;html=1;fillColor=#dae8fc;strokeColor=#6c8ebf;" vertex="1" parent="gjld3cbzGbYmKHsjepiV-257">
          <mxGeometry x="70" y="180" width="120" height="60" as="geometry" />
        </mxCell>
        <mxCell id="gjld3cbzGbYmKHsjepiV-260" value="Logo设置" style="rounded=1;whiteSpace=wrap;html=1;fillColor=#dae8fc;strokeColor=#6c8ebf;" vertex="1" parent="gjld3cbzGbYmKHsjepiV-257">
          <mxGeometry x="70" y="240" width="120" height="60" as="geometry" />
        </mxCell>
        <mxCell id="gjld3cbzGbYmKHsjepiV-261" value="广告位设置" style="rounded=1;whiteSpace=wrap;html=1;fillColor=#dae8fc;strokeColor=#6c8ebf;" vertex="1" parent="gjld3cbzGbYmKHsjepiV-257">
          <mxGeometry x="70" y="300" width="120" height="60" as="geometry" />
        </mxCell>
        <mxCell id="gjld3cbzGbYmKHsjepiV-262" value="排序设置" style="rounded=1;whiteSpace=wrap;html=1;fillColor=#dae8fc;strokeColor=#6c8ebf;" vertex="1" parent="gjld3cbzGbYmKHsjepiV-257">
          <mxGeometry x="70" y="360" width="120" height="60" as="geometry" />
        </mxCell>
        <mxCell id="gjld3cbzGbYmKHsjepiV-263" value="帮助中心设置" style="rounded=1;whiteSpace=wrap;html=1;fillColor=#dae8fc;strokeColor=#6c8ebf;" vertex="1" parent="gjld3cbzGbYmKHsjepiV-257">
          <mxGeometry x="70" y="480" width="120" height="60" as="geometry" />
        </mxCell>
        <mxCell id="gjld3cbzGbYmKHsjepiV-264" value="分销体系" style="rounded=1;whiteSpace=wrap;html=1;fillColor=#dae8fc;strokeColor=#6c8ebf;" vertex="1" parent="gjld3cbzGbYmKHsjepiV-257">
          <mxGeometry x="70" y="420" width="120" height="60" as="geometry" />
        </mxCell>
        <mxCell id="gjld3cbzGbYmKHsjepiV-265" value="拍卖（上架）" style="swimlane;fontColor=#000000;" vertex="1" parent="1">
          <mxGeometry x="2175" y="12450" width="760" height="1180" as="geometry" />
        </mxCell>
        <mxCell id="gjld3cbzGbYmKHsjepiV-273" value="拥有的NFT" style="rounded=1;whiteSpace=wrap;html=1;fillColor=#dae8fc;strokeColor=#6c8ebf;" vertex="1" parent="gjld3cbzGbYmKHsjepiV-265">
          <mxGeometry x="60" y="85.75" width="115" height="45" as="geometry" />
        </mxCell>
        <mxCell id="gjld3cbzGbYmKHsjepiV-274" value="" style="rounded=0;whiteSpace=wrap;html=1;fillColor=#dae8fc;strokeColor=#6c8ebf;" vertex="1" parent="gjld3cbzGbYmKHsjepiV-265">
          <mxGeometry x="245" y="80" width="190" height="271" as="geometry" />
        </mxCell>
        <mxCell id="gjld3cbzGbYmKHsjepiV-275" value="1" style="rounded=1;whiteSpace=wrap;html=1;fontColor=#000000;" vertex="1" parent="gjld3cbzGbYmKHsjepiV-265">
          <mxGeometry x="295" y="125" width="120" height="60" as="geometry" />
        </mxCell>
        <mxCell id="gjld3cbzGbYmKHsjepiV-276" value="2" style="rounded=1;whiteSpace=wrap;html=1;fontColor=#000000;" vertex="1" parent="gjld3cbzGbYmKHsjepiV-265">
          <mxGeometry x="295" y="193.5" width="120" height="60" as="geometry" />
        </mxCell>
        <mxCell id="gjld3cbzGbYmKHsjepiV-277" value="3" style="rounded=1;whiteSpace=wrap;html=1;fontColor=#000000;" vertex="1" parent="gjld3cbzGbYmKHsjepiV-265">
          <mxGeometry x="295" y="273.5" width="120" height="60" as="geometry" />
        </mxCell>
        <mxCell id="gjld3cbzGbYmKHsjepiV-278" value="搜索TokenID" style="rounded=1;whiteSpace=wrap;html=1;fillColor=#dae8fc;strokeColor=#6c8ebf;" vertex="1" parent="gjld3cbzGbYmKHsjepiV-265">
          <mxGeometry x="297.5" y="85.75" width="115" height="33.5" as="geometry" />
        </mxCell>
        <mxCell id="gjld3cbzGbYmKHsjepiV-279" value="✔" style="rounded=1;whiteSpace=wrap;html=1;fillColor=#dae8fc;strokeColor=#6c8ebf;" vertex="1" parent="gjld3cbzGbYmKHsjepiV-265">
          <mxGeometry x="260" y="88.63000000000102" width="30" height="27.75" as="geometry" />
        </mxCell>
        <mxCell id="gjld3cbzGbYmKHsjepiV-280" value="✔" style="rounded=1;whiteSpace=wrap;html=1;fillColor=#dae8fc;strokeColor=#6c8ebf;" vertex="1" parent="gjld3cbzGbYmKHsjepiV-265">
          <mxGeometry x="260" y="141.11999999999898" width="25" height="22.38" as="geometry" />
        </mxCell>
        <mxCell id="gjld3cbzGbYmKHsjepiV-281" value="✔" style="rounded=1;whiteSpace=wrap;html=1;fillColor=#dae8fc;strokeColor=#6c8ebf;" vertex="1" parent="gjld3cbzGbYmKHsjepiV-265">
          <mxGeometry x="260" y="212.3099999999995" width="25" height="22.38" as="geometry" />
        </mxCell>
        <mxCell id="gjld3cbzGbYmKHsjepiV-282" value="✔" style="rounded=1;whiteSpace=wrap;html=1;fillColor=#dae8fc;strokeColor=#6c8ebf;" vertex="1" parent="gjld3cbzGbYmKHsjepiV-265">
          <mxGeometry x="260" y="292.3099999999995" width="25" height="22.38" as="geometry" />
        </mxCell>
        <mxCell id="gjld3cbzGbYmKHsjepiV-283" value="" style="shape=singleArrow;whiteSpace=wrap;html=1;fontColor=#000000;" vertex="1" parent="gjld3cbzGbYmKHsjepiV-265">
          <mxGeometry x="190" y="81.11999999999898" width="50" height="60" as="geometry" />
        </mxCell>
        <mxCell id="gjld3cbzGbYmKHsjepiV-284" value="起拍价：" style="text;html=1;strokeColor=none;fillColor=none;align=left;verticalAlign=middle;whiteSpace=wrap;rounded=0;fontColor=#000000;" vertex="1" parent="gjld3cbzGbYmKHsjepiV-265">
          <mxGeometry x="465" y="395" width="105" height="30" as="geometry" />
        </mxCell>
        <mxCell id="gjld3cbzGbYmKHsjepiV-285" value="上架" style="rounded=1;whiteSpace=wrap;html=1;fillColor=#dae8fc;strokeColor=#6c8ebf;" vertex="1" parent="gjld3cbzGbYmKHsjepiV-265">
          <mxGeometry x="280" y="480" width="120" height="40" as="geometry" />
        </mxCell>
        <mxCell id="gjld3cbzGbYmKHsjepiV-287" value="拍卖方式：&lt;span style=&quot;font-family: 等线; font-size: 10.5pt; background-color: initial;&quot;&gt;限时竞价拍卖/&lt;/span&gt;&lt;span style=&quot;font-family: 等线; font-size: 10.5pt; background-color: initial;&quot;&gt;荷兰式拍卖&lt;/span&gt;" style="rounded=1;whiteSpace=wrap;html=1;fillColor=#dae8fc;strokeColor=#6c8ebf;align=left;" vertex="1" parent="gjld3cbzGbYmKHsjepiV-265">
          <mxGeometry x="60" y="380" width="247.5" height="60" as="geometry" />
        </mxCell>
        <mxCell id="gjld3cbzGbYmKHsjepiV-288" value="拍卖（参与拍卖）" style="swimlane;fontColor=#000000;" vertex="1" parent="1">
          <mxGeometry x="2175" y="13870" width="760" height="1180" as="geometry" />
        </mxCell>
        <mxCell id="gjld3cbzGbYmKHsjepiV-359" value="缩略图" style="rounded=0;whiteSpace=wrap;html=1;fillColor=#dae8fc;strokeColor=#6c8ebf;" vertex="1" parent="gjld3cbzGbYmKHsjepiV-288">
          <mxGeometry x="252.5" y="90" width="260" height="160" as="geometry" />
        </mxCell>
        <mxCell id="gjld3cbzGbYmKHsjepiV-360" value="名称：xx" style="text;html=1;strokeColor=none;fillColor=none;align=left;verticalAlign=middle;whiteSpace=wrap;rounded=0;fontColor=#000000;" vertex="1" parent="gjld3cbzGbYmKHsjepiV-288">
          <mxGeometry x="252.5" y="270" width="60" height="30" as="geometry" />
        </mxCell>
        <mxCell id="gjld3cbzGbYmKHsjepiV-361" value="&lt;span style=&quot;&quot;&gt;拍卖方式：&lt;/span&gt;" style="text;html=1;strokeColor=none;fillColor=none;align=left;verticalAlign=middle;whiteSpace=wrap;rounded=0;fontColor=#000000;" vertex="1" parent="gjld3cbzGbYmKHsjepiV-288">
          <mxGeometry x="252.5" y="330" width="75" height="30" as="geometry" />
        </mxCell>
        <mxCell id="gjld3cbzGbYmKHsjepiV-362" value="&lt;span style=&quot;&quot;&gt;介绍：&lt;/span&gt;" style="text;html=1;strokeColor=none;fillColor=none;align=left;verticalAlign=middle;whiteSpace=wrap;rounded=0;fontColor=#000000;" vertex="1" parent="gjld3cbzGbYmKHsjepiV-288">
          <mxGeometry x="252.5" y="300" width="80" height="30" as="geometry" />
        </mxCell>
        <mxCell id="gjld3cbzGbYmKHsjepiV-364" value="&lt;span style=&quot;&quot;&gt;当前价：&lt;/span&gt;" style="text;html=1;strokeColor=none;fillColor=none;align=left;verticalAlign=middle;whiteSpace=wrap;rounded=0;fontColor=#000000;" vertex="1" parent="gjld3cbzGbYmKHsjepiV-288">
          <mxGeometry x="252.5" y="360" width="60" height="30" as="geometry" />
        </mxCell>
        <mxCell id="gjld3cbzGbYmKHsjepiV-366" value="出价价格：10000" style="text;html=1;strokeColor=none;fillColor=none;align=center;verticalAlign=middle;whiteSpace=wrap;rounded=0;" vertex="1" parent="gjld3cbzGbYmKHsjepiV-288">
          <mxGeometry x="247.5" y="450" width="145" height="30" as="geometry" />
        </mxCell>
        <mxCell id="gjld3cbzGbYmKHsjepiV-367" value="出价" style="rounded=1;whiteSpace=wrap;html=1;fillColor=#dae8fc;strokeColor=#6c8ebf;" vertex="1" parent="gjld3cbzGbYmKHsjepiV-288">
          <mxGeometry x="392.5" y="440" width="120" height="60" as="geometry" />
        </mxCell>
        <mxCell id="gjld3cbzGbYmKHsjepiV-303" value="拍卖首页" style="swimlane;fontColor=#000000;startSize=23;" vertex="1" parent="1">
          <mxGeometry x="2055" y="10920" width="1000" height="1180" as="geometry" />
        </mxCell>
        <mxCell id="gjld3cbzGbYmKHsjepiV-304" value="" style="rounded=0;whiteSpace=wrap;html=1;fontColor=#000000;" vertex="1" parent="gjld3cbzGbYmKHsjepiV-303">
          <mxGeometry x="25" y="170" width="300" height="410" as="geometry" />
        </mxCell>
        <mxCell id="gjld3cbzGbYmKHsjepiV-305" value="缩略图" style="rounded=0;whiteSpace=wrap;html=1;fillColor=#dae8fc;strokeColor=#6c8ebf;" vertex="1" parent="gjld3cbzGbYmKHsjepiV-303">
          <mxGeometry x="45" y="180" width="260" height="160" as="geometry" />
        </mxCell>
        <mxCell id="gjld3cbzGbYmKHsjepiV-306" value="名称：xx" style="text;html=1;strokeColor=none;fillColor=none;align=left;verticalAlign=middle;whiteSpace=wrap;rounded=0;fontColor=#000000;" vertex="1" parent="gjld3cbzGbYmKHsjepiV-303">
          <mxGeometry x="45" y="360" width="60" height="30" as="geometry" />
        </mxCell>
        <mxCell id="gjld3cbzGbYmKHsjepiV-308" value="&lt;span style=&quot;&quot;&gt;拍卖方式：&lt;/span&gt;" style="text;html=1;strokeColor=none;fillColor=none;align=left;verticalAlign=middle;whiteSpace=wrap;rounded=0;fontColor=#000000;" vertex="1" parent="gjld3cbzGbYmKHsjepiV-303">
          <mxGeometry x="45" y="420" width="75" height="30" as="geometry" />
        </mxCell>
        <mxCell id="gjld3cbzGbYmKHsjepiV-310" value="&lt;span style=&quot;&quot;&gt;介绍：&lt;/span&gt;" style="text;html=1;strokeColor=none;fillColor=none;align=left;verticalAlign=middle;whiteSpace=wrap;rounded=0;fontColor=#000000;" vertex="1" parent="gjld3cbzGbYmKHsjepiV-303">
          <mxGeometry x="45" y="390" width="80" height="30" as="geometry" />
        </mxCell>
        <mxCell id="gjld3cbzGbYmKHsjepiV-337" value="进行中" style="shape=parallelogram;perimeter=parallelogramPerimeter;whiteSpace=wrap;html=1;fixedSize=1;fillColor=#dae8fc;strokeColor=#6c8ebf;" vertex="1" parent="gjld3cbzGbYmKHsjepiV-303">
          <mxGeometry x="131" y="70" width="258" height="60" as="geometry" />
        </mxCell>
        <mxCell id="gjld3cbzGbYmKHsjepiV-338" value="已结束" style="shape=parallelogram;perimeter=parallelogramPerimeter;whiteSpace=wrap;html=1;fixedSize=1;fillColor=#dae8fc;strokeColor=#6c8ebf;" vertex="1" parent="gjld3cbzGbYmKHsjepiV-303">
          <mxGeometry x="369" y="70" width="258" height="60" as="geometry" />
        </mxCell>
        <mxCell id="gjld3cbzGbYmKHsjepiV-339" value="待开始" style="shape=parallelogram;perimeter=parallelogramPerimeter;whiteSpace=wrap;html=1;fixedSize=1;fillColor=#dae8fc;strokeColor=#6c8ebf;" vertex="1" parent="gjld3cbzGbYmKHsjepiV-303">
          <mxGeometry x="606" y="70" width="258" height="60" as="geometry" />
        </mxCell>
        <mxCell id="gjld3cbzGbYmKHsjepiV-340" value="上架" style="text;html=1;align=center;verticalAlign=middle;resizable=0;points=[];autosize=1;strokeColor=#6c8ebf;fillColor=#dae8fc;" vertex="1" parent="gjld3cbzGbYmKHsjepiV-303">
          <mxGeometry x="905" y="30" width="50" height="30" as="geometry" />
        </mxCell>
        <mxCell id="gjld3cbzGbYmKHsjepiV-341" value="参与竞拍" style="rounded=1;whiteSpace=wrap;html=1;" vertex="1" parent="gjld3cbzGbYmKHsjepiV-303">
          <mxGeometry x="127.5" y="510" width="95" height="40" as="geometry" />
        </mxCell>
        <mxCell id="gjld3cbzGbYmKHsjepiV-342" value="&lt;span style=&quot;&quot;&gt;当前价：&lt;/span&gt;" style="text;html=1;strokeColor=none;fillColor=none;align=left;verticalAlign=middle;whiteSpace=wrap;rounded=0;fontColor=#000000;" vertex="1" parent="gjld3cbzGbYmKHsjepiV-303">
          <mxGeometry x="45" y="450" width="60" height="30" as="geometry" />
        </mxCell>
        <mxCell id="gjld3cbzGbYmKHsjepiV-344" value="" style="rounded=0;whiteSpace=wrap;html=1;fontColor=#000000;" vertex="1" parent="gjld3cbzGbYmKHsjepiV-303">
          <mxGeometry x="350" y="170" width="300" height="410" as="geometry" />
        </mxCell>
        <mxCell id="gjld3cbzGbYmKHsjepiV-345" value="缩略图" style="rounded=0;whiteSpace=wrap;html=1;fillColor=#dae8fc;strokeColor=#6c8ebf;" vertex="1" parent="gjld3cbzGbYmKHsjepiV-303">
          <mxGeometry x="370" y="180" width="260" height="160" as="geometry" />
        </mxCell>
        <mxCell id="gjld3cbzGbYmKHsjepiV-346" value="名称：xx" style="text;html=1;strokeColor=none;fillColor=none;align=left;verticalAlign=middle;whiteSpace=wrap;rounded=0;fontColor=#000000;" vertex="1" parent="gjld3cbzGbYmKHsjepiV-303">
          <mxGeometry x="370" y="360" width="60" height="30" as="geometry" />
        </mxCell>
        <mxCell id="gjld3cbzGbYmKHsjepiV-347" value="&lt;span style=&quot;&quot;&gt;拍卖方式：&lt;/span&gt;" style="text;html=1;strokeColor=none;fillColor=none;align=left;verticalAlign=middle;whiteSpace=wrap;rounded=0;fontColor=#000000;" vertex="1" parent="gjld3cbzGbYmKHsjepiV-303">
          <mxGeometry x="370" y="420" width="75" height="30" as="geometry" />
        </mxCell>
        <mxCell id="gjld3cbzGbYmKHsjepiV-348" value="&lt;span style=&quot;&quot;&gt;介绍：&lt;/span&gt;" style="text;html=1;strokeColor=none;fillColor=none;align=left;verticalAlign=middle;whiteSpace=wrap;rounded=0;fontColor=#000000;" vertex="1" parent="gjld3cbzGbYmKHsjepiV-303">
          <mxGeometry x="370" y="390" width="80" height="30" as="geometry" />
        </mxCell>
        <mxCell id="gjld3cbzGbYmKHsjepiV-349" value="参与竞拍" style="rounded=1;whiteSpace=wrap;html=1;" vertex="1" parent="gjld3cbzGbYmKHsjepiV-303">
          <mxGeometry x="452.5" y="510" width="95" height="40" as="geometry" />
        </mxCell>
        <mxCell id="gjld3cbzGbYmKHsjepiV-350" value="&lt;span style=&quot;&quot;&gt;当前价：&lt;/span&gt;" style="text;html=1;strokeColor=none;fillColor=none;align=left;verticalAlign=middle;whiteSpace=wrap;rounded=0;fontColor=#000000;" vertex="1" parent="gjld3cbzGbYmKHsjepiV-303">
          <mxGeometry x="370" y="450" width="60" height="30" as="geometry" />
        </mxCell>
        <mxCell id="gjld3cbzGbYmKHsjepiV-351" value="" style="rounded=0;whiteSpace=wrap;html=1;fontColor=#000000;" vertex="1" parent="gjld3cbzGbYmKHsjepiV-303">
          <mxGeometry x="670" y="170" width="300" height="410" as="geometry" />
        </mxCell>
        <mxCell id="gjld3cbzGbYmKHsjepiV-352" value="缩略图" style="rounded=0;whiteSpace=wrap;html=1;fillColor=#dae8fc;strokeColor=#6c8ebf;" vertex="1" parent="gjld3cbzGbYmKHsjepiV-303">
          <mxGeometry x="690" y="180" width="260" height="160" as="geometry" />
        </mxCell>
        <mxCell id="gjld3cbzGbYmKHsjepiV-353" value="名称：xx" style="text;html=1;strokeColor=none;fillColor=none;align=left;verticalAlign=middle;whiteSpace=wrap;rounded=0;fontColor=#000000;" vertex="1" parent="gjld3cbzGbYmKHsjepiV-303">
          <mxGeometry x="690" y="360" width="60" height="30" as="geometry" />
        </mxCell>
        <mxCell id="gjld3cbzGbYmKHsjepiV-354" value="&lt;span style=&quot;&quot;&gt;拍卖方式：&lt;/span&gt;" style="text;html=1;strokeColor=none;fillColor=none;align=left;verticalAlign=middle;whiteSpace=wrap;rounded=0;fontColor=#000000;" vertex="1" parent="gjld3cbzGbYmKHsjepiV-303">
          <mxGeometry x="690" y="420" width="75" height="30" as="geometry" />
        </mxCell>
        <mxCell id="gjld3cbzGbYmKHsjepiV-355" value="&lt;span style=&quot;&quot;&gt;介绍：&lt;/span&gt;" style="text;html=1;strokeColor=none;fillColor=none;align=left;verticalAlign=middle;whiteSpace=wrap;rounded=0;fontColor=#000000;" vertex="1" parent="gjld3cbzGbYmKHsjepiV-303">
          <mxGeometry x="690" y="390" width="80" height="30" as="geometry" />
        </mxCell>
        <mxCell id="gjld3cbzGbYmKHsjepiV-356" value="参与竞拍" style="rounded=1;whiteSpace=wrap;html=1;" vertex="1" parent="gjld3cbzGbYmKHsjepiV-303">
          <mxGeometry x="772.5" y="510" width="95" height="40" as="geometry" />
        </mxCell>
        <mxCell id="gjld3cbzGbYmKHsjepiV-357" value="&lt;span style=&quot;&quot;&gt;当前价：&lt;/span&gt;" style="text;html=1;strokeColor=none;fillColor=none;align=left;verticalAlign=middle;whiteSpace=wrap;rounded=0;fontColor=#000000;" vertex="1" parent="gjld3cbzGbYmKHsjepiV-303">
          <mxGeometry x="690" y="450" width="60" height="30" as="geometry" />
        </mxCell>
      </root>
    </mxGraphModel>
  </diagram>
</mxfile>
